<svg width="1615" height="881" viewBox="0 0 1615 881" fill="none" xmlns="http://www.w3.org/2000/svg">
<path d="M21.5053 20C18.4609 35.8954 8.35303 844.636 8.35303 860.621M21.5053 19.4785H103.199C184.184 19.4785 264.693 21.0611 345.685 21.0611C456.79 21.0611 567.753 21.0299 678.756 19.5664C781.137 18.2165 885.139 20.288 987.005 14.7304C1039.56 11.8633 1093.24 13.1478 1146.13 13.1478C1295.01 13.1478 1449.77 -0.713628 1595.35 17.0552C1592.96 41.1603 1615.97 849.822 1602.02 873C1451.92 864.775 1227.75 865.096 1077.5 859.505C1077.5 859.505 873.5 856.5 767 859.505C717.839 859.688 617.149 858.437 568 859.505C518.931 860.572 467.656 859.33 418.5 859.505C314.066 859.878 203.905 853.639 99.613 859.505C75.3181 860.872 33.2734 864.425 8.99984 861.5" stroke="black" stroke-width="15" stroke-linecap="round"/>
</svg>
