<svg width="617" height="416" viewBox="0 0 617 416" fill="none" xmlns="http://www.w3.org/2000/svg">
<path d="M50.3275 90.3797C49.444 99.8429 45.4018 109.49 44.0637 119.071C41.2997 138.861 37.5434 158.422 34.9233 178.251C30.5647 211.237 22.5877 242.99 18.1091 275.971C15.1481 297.776 8.37235 319.286 8.25667 341.404C8.20515 351.254 10.1151 348.851 18.931 349.711C34.9216 351.271 50.8118 355.138 66.7435 357.419C85.0742 360.045 103.433 361.483 121.81 363.586C175.721 369.754 228.912 380.724 282.99 385.596C298.223 386.969 313.459 385.702 328.642 387.909C351.485 391.229 374.414 393.71 397.278 397.158C413.801 399.65 430.854 403.325 447.439 403.325C453.528 403.325 458.2 406.603 464.405 406.408C468.752 406.271 469.711 394.762 470.6 390.821C475.791 367.807 480.439 345.441 483.565 321.962C486.113 302.826 489.844 285.144 495.703 266.979C498.47 258.399 498.308 249.469 501.197 241.114C504.918 230.351 506.559 219.806 509.592 208.997C513.797 194.014 517.839 175.276 518.68 159.752C519.263 148.999 519.071 139.073 520.882 128.32C522.22 120.378 524.371 110.679 524.413 102.713" stroke="black" stroke-width="15" stroke-linecap="round"/>
<path d="M50.1441 88.3882C50.9493 80.5811 53.9932 71.9278 55.5415 64.227C56.5683 59.12 75.1979 62.9553 79.0825 62.9553C85.8634 62.9553 92.6397 63.8031 99.2089 63.8031C106.667 63.8031 114.801 65.876 122.656 64.6038C123.906 64.4013 124.383 51.1008 124.895 49.2028C126.742 42.3497 128.854 35.4564 132.055 29.2333C133.161 27.0828 133.873 24.6779 135.285 22.7338C136.568 20.9675 136.745 18.8233 137.929 17.1762C139.627 14.8138 140.375 11.5137 142.286 9.35795C143.32 8.19173 145.133 8.69858 146.524 8.69858C151.006 8.69858 155.489 8.69858 159.972 8.69858C169.046 8.69858 178.219 9.16559 187.284 8.65149C201.775 7.82956 216.037 7.73734 230.534 8.65148C231.193 8.69308 235.528 8.05642 235.802 9.16956C236.357 11.42 235.815 14.692 235.803 16.9878C235.764 24.513 235.645 32.6253 236.596 40.0658C237.268 45.3269 236.76 50.4788 237.137 55.7494C237.451 60.1523 238.541 65.0013 238.519 69.3136C238.496 73.686 239.04 70.8635 241.418 70.3968C249.991 68.715 259.3 68.0419 267.995 68.0419C279.728 68.0419 291.46 68.0419 303.193 68.0419C318.25 68.0419 332.997 71.2753 348.003 71.433C358.131 71.5394 368.87 72.9 378.91 74.4001C391.03 76.2111 403.214 79.8074 415.361 80.7583C426.186 81.6058 437.365 83.3296 448.044 85.421C455.507 86.8826 463.516 87.2893 470.809 89.7069C478.533 92.2678 487.374 93.8273 495.395 94.9819C500.146 95.6658 505.582 96.8658 510.328 96.8658C515.105 96.8658 519.777 100.257 524.505 100.257" stroke="black" stroke-width="15" stroke-linecap="round"/>
<path d="M464.619 407.994C466.186 407.817 467.042 406.497 468.161 405.357C471.184 402.275 474.938 400.414 478.369 398.01C484.197 393.924 490.014 389.832 495.948 385.953C504.904 380.097 513.765 372.051 521.793 364.759C526.039 360.901 531.08 358.281 535.46 354.585C540.599 350.251 545.586 345.467 550.887 341.398C557.58 336.26 562.725 328.794 569.49 323.878C585.272 312.41 595.092 292.845 607.998 278.287C610.067 275.953 606.175 268.841 605.071 266.607C603.13 262.68 600.044 254.984 596.01 253.042C591.219 250.737 586.322 247.154 582.03 243.717C577.439 240.042 569.38 236.933 563.978 235.051C551.574 230.73 538.709 225.779 526.868 219.791C523.987 218.335 519.556 215.947 516.43 215.553C513.989 215.245 512.271 213.009 509.719 213.009" stroke="black" stroke-width="15" stroke-linecap="round"/>
<path d="M118.615 206.675C118.559 207.329 118.478 207.981 118.375 208.63C118.271 209.28 118.144 209.928 117.994 210.573C117.626 211.012 117.263 211.403 116.903 211.748C116.594 212.051 116.371 212.454 116.233 212.96C115.687 213.289 115.058 213.751 114.348 214.348C113.684 214.948 113.37 215.58 113.406 216.242L112.426 216.156C111.792 216.947 111.075 217.614 110.275 218.156C109.475 218.697 108.63 219.212 107.741 219.699L105.149 221.095C104.31 221.539 103.51 222.081 102.749 222.72C102.371 222.734 102.062 222.778 101.82 222.851C101.578 222.924 101.273 222.92 100.903 222.841C99.3745 223.648 97.7856 224.333 96.1369 224.894C94.5349 225.46 92.9095 226.024 91.2608 226.585C89.6629 227.104 88.0609 227.67 86.4548 228.282C84.8487 228.894 83.3025 229.629 81.8162 230.488C81.6802 230.429 81.4954 230.389 81.2619 230.368C80.8417 230.332 80.4153 230.365 79.9828 230.468C79.5544 230.525 79.1301 230.535 78.7098 230.498C78.523 230.482 78.2682 230.436 77.9454 230.361C77.6693 230.289 77.4653 230.201 77.3333 230.095C77.112 229.935 76.9202 229.706 76.7578 229.41C76.5955 229.113 76.4818 228.797 76.4169 228.462C76.356 228.081 76.3165 227.724 76.2983 227.393C76.2801 227.062 76.2811 226.78 76.3015 226.547C76.3259 226.266 76.3757 225.965 76.4509 225.642C76.526 225.319 76.6225 225.022 76.7403 224.75C78.1027 224.775 79.4874 224.543 80.8945 224.055C82.3482 223.57 83.73 223.103 85.0396 222.653C85.3787 222.541 85.6497 222.4 85.8528 222.23C86.1066 222.017 86.3564 221.85 86.6021 221.731C86.8518 221.564 87.1229 221.423 87.4153 221.308C87.7077 221.192 88.064 221.153 88.4842 221.19L88.6944 221.208C91.7542 220.111 94.7542 218.892 97.6944 217.549C100.681 216.21 103.647 214.847 106.591 213.457C106.768 213.049 107.014 212.647 107.331 212.252C107.695 211.86 108.033 211.49 108.345 211.141C108.662 210.745 108.956 210.347 109.226 209.947C109.496 209.547 109.649 209.137 109.686 208.717C109.759 207.876 109.423 207.141 108.678 206.511L108.398 206.487C107.838 206.438 107.353 206.325 106.945 206.148C106.541 205.924 106.159 205.726 105.797 205.553C105.44 205.334 105.032 205.157 104.573 205.023C104.118 204.842 103.585 204.748 102.974 204.742C102.757 204.534 102.398 204.338 101.896 204.153C101.395 203.968 100.981 203.861 100.654 203.833C98.9727 203.686 97.3048 203.657 95.6501 203.748C93.9994 203.792 92.3549 203.765 90.7164 203.669C90.2758 203.866 89.8606 204.041 89.4707 204.195C89.0809 204.349 88.6291 204.404 88.1155 204.359C87.882 204.339 87.6718 204.32 87.4851 204.304C87.3023 204.241 87.0963 204.176 86.8669 204.109C85.9471 204.405 84.9146 204.644 83.7695 204.826C82.6284 204.961 81.4813 205.167 80.328 205.442C79.2255 205.675 78.1849 206.008 77.2062 206.439C76.2276 206.871 75.4427 207.509 74.8518 208.351C74.8314 208.584 74.8598 208.799 74.9369 208.994C75.0181 209.142 75.0486 209.333 75.0282 209.566L75.0038 209.846C74.6992 210.102 74.484 210.413 74.358 210.778C74.2361 211.097 74.1356 211.441 74.0563 211.81C73.9812 212.133 73.8806 212.477 73.7547 212.843C73.6795 213.165 73.4876 213.478 73.1789 213.78C73.3047 214.497 73.331 215.276 73.2577 216.117C73.1764 217.05 73.0249 217.978 72.8035 218.9C72.6287 219.826 72.5007 220.756 72.4193 221.69C72.342 222.577 72.3662 223.379 72.492 224.096C72.1874 224.351 72.0341 224.761 72.0319 225.326C72.0298 225.89 71.8765 226.3 71.5719 226.556C71.5393 226.93 71.6103 227.195 71.7849 227.351C72.0062 227.512 72.1259 227.757 72.1442 228.088C71.8882 228.866 71.7196 229.722 71.6382 230.656C71.5202 232.01 71.5403 233.4 71.6984 234.825C71.9032 236.255 72.1568 237.665 72.4591 239.056C73.2266 238.888 74.0367 238.771 74.8894 238.704C75.7929 238.595 76.6416 238.575 77.4355 238.645C77.5755 238.657 77.7136 238.692 77.8496 238.751C77.9897 238.764 78.1298 238.776 78.2699 238.788C78.3185 239.31 78.4646 239.793 78.7082 240.238C78.9518 240.683 79.1679 241.172 79.3566 241.706C79.0947 242.013 78.8622 242.251 78.6591 242.422C78.4987 242.643 78.4022 242.94 78.3696 243.314C77.7118 243.304 77.1606 243.42 76.7159 243.663C76.2672 243.954 75.7697 244.263 75.2235 244.592L74.9433 244.567C74.1494 244.498 73.4835 244.58 72.9454 244.816C72.4033 245.098 71.7891 245.397 71.1028 245.713C70.5627 245.431 70.0126 245.265 69.4522 245.216C68.8451 245.163 68.2279 245.226 67.6005 245.407C66.8818 245.014 66.3195 244.448 65.9136 243.706C65.5036 243.012 65.1718 242.23 64.9181 241.361C64.6604 240.538 64.4281 239.694 64.2211 238.829C64.0609 237.968 63.8478 237.173 63.582 236.444L63.6796 235.323C63.7732 234.249 63.7693 233.214 63.6679 232.217C63.6173 231.177 63.6388 230.12 63.7324 229.046C63.769 228.626 63.831 228.184 63.9184 227.722C64.0525 227.263 64.2312 226.831 64.4546 226.427C64.3978 225.999 64.3857 225.598 64.4183 225.224L64.5342 223.893C64.6563 222.493 64.825 221.096 65.0405 219.703C65.3026 218.314 65.4947 216.919 65.6167 215.518C65.7062 214.491 65.7277 213.434 65.6812 212.348C65.4396 212.421 65.2213 212.496 65.0264 212.573C64.8315 212.65 64.6173 212.678 64.3838 212.658C64.1503 212.637 63.9189 212.594 63.6894 212.527C63.5067 212.464 63.324 212.401 63.1413 212.337C62.7109 211.876 62.4288 211.334 62.2949 210.711C62.161 210.087 61.953 209.504 61.6709 208.962C61.7482 208.075 61.9513 207.363 62.2803 206.827C62.5667 206.241 62.917 205.73 63.3313 205.296C63.7496 204.815 64.1659 204.357 64.5801 203.923C65.0411 203.493 65.4422 202.94 65.7834 202.264L66.0635 202.288C66.8107 202.354 67.5782 202.186 68.366 201.784C69.1579 201.336 70.0208 201.152 70.9547 201.234C71.3182 200.842 71.7924 200.531 72.3771 200.3C72.966 200.022 73.5721 199.816 74.1954 199.683C74.8654 199.553 75.506 199.491 76.1171 199.498C76.779 199.462 77.3901 199.468 77.9505 199.517C78.1657 199.207 78.4642 199.021 78.8459 198.96C79.2317 198.853 79.6155 198.769 79.9972 198.708C80.4296 198.605 80.8134 198.521 81.1484 198.456C81.5342 198.348 81.858 198.142 82.12 197.835C82.4854 197.961 82.8316 198.038 83.1585 198.067C83.7655 198.12 84.3553 198.101 84.9279 198.01C85.5045 197.872 86.0812 197.735 86.6578 197.597C87.2385 197.412 87.8172 197.251 88.3938 197.114C89.0171 196.98 89.6557 196.942 90.3094 196.999C90.5429 197.019 90.7743 197.063 91.0038 197.13C91.2372 197.151 91.4707 197.171 91.7042 197.192C92.0778 197.224 92.3001 197.102 92.3712 196.826C92.489 196.554 92.6708 196.359 92.9165 196.239C93.0525 196.298 93.3073 196.344 93.6809 196.376C94.6148 196.458 95.5315 196.468 96.4309 196.405C97.3344 196.296 98.2531 196.282 99.1871 196.364C99.6073 196.401 100.026 196.461 100.442 196.544C100.858 196.628 101.268 196.781 101.672 197.005C101.778 196.873 101.881 196.765 101.983 196.679C102.084 196.594 102.165 196.483 102.223 196.347C104.499 196.688 106.607 197.343 108.545 198.312C110.531 199.286 112.595 200.172 114.736 200.971C114.98 201.416 115.274 201.818 115.619 202.178L116.725 203.263C117.117 203.626 117.485 203.988 117.83 204.348C118.175 204.707 118.468 205.133 118.707 205.624L118.615 206.675ZM208.183 241.474C208.029 242.167 207.725 242.681 207.272 243.018C206.866 243.359 206.392 243.67 205.85 243.952C205.621 243.885 205.389 243.841 205.156 243.821C204.973 243.758 204.765 243.716 204.531 243.696C203.088 243.522 201.694 243.589 200.35 243.895C199.052 244.205 197.718 244.394 196.348 244.462C195.873 244.514 195.425 244.522 195.005 244.486C194.635 244.406 194.236 244.395 193.808 244.451C192.293 244.554 190.689 244.602 188.996 244.595C187.303 244.588 185.606 244.628 183.904 244.714C182.207 244.754 180.527 244.866 178.864 245.049C177.252 245.191 175.721 245.48 174.271 245.918C174.139 245.812 174.007 245.707 173.875 245.601C173.747 245.449 173.59 245.364 173.403 245.348C172.936 245.307 172.487 245.338 172.054 245.442C171.622 245.545 171.197 245.555 170.781 245.471C170.29 245.711 169.758 245.876 169.185 245.967C168.663 246.016 168.118 246.062 167.55 246.106C167.032 246.108 166.51 246.156 165.984 246.252C165.458 246.347 164.946 246.561 164.446 246.893C164.089 246.674 163.63 246.54 163.07 246.491C162.56 246.399 162.226 246.182 162.068 245.838C160.949 246.258 159.777 246.485 158.55 246.519C157.371 246.557 156.176 246.499 154.966 246.346C154.176 246.23 153.276 246.034 152.265 245.757C151.254 245.48 150.249 245.134 149.25 244.717C148.255 244.253 147.334 243.749 146.488 243.205C145.645 242.613 145.021 241.947 144.615 241.206C144.329 240.71 144.14 240.176 144.049 239.603C143.958 239.031 143.667 238.582 143.178 238.257C143.412 237.195 143.667 236.158 143.943 235.147C144.219 234.136 144.498 233.102 144.778 232.044C145.781 231.332 146.742 230.569 147.659 229.756C148.577 228.942 149.452 228.077 150.285 227.162C151.209 226.819 152.071 226.377 152.871 225.836C153.718 225.298 154.541 224.758 155.341 224.217C156.192 223.632 157.017 223.069 157.817 222.528C158.664 221.99 159.551 221.526 160.479 221.137C160.648 220.822 160.857 220.582 161.107 220.416C161.407 220.207 161.706 220.021 162.002 219.859C162.303 219.65 162.58 219.439 162.834 219.226C163.092 218.966 163.283 218.653 163.409 218.288C165.129 217.45 166.661 216.337 168.006 214.949C169.35 213.561 170.29 211.95 170.826 210.114C170.09 209.391 169.216 208.891 168.205 208.614C167.244 208.295 166.231 208.042 165.165 207.854C164.235 207.726 163.255 207.64 162.223 207.597C161.239 207.558 160.237 207.447 159.218 207.263C158.162 207.5 157.069 207.617 155.941 207.612C154.858 207.611 153.776 207.611 152.694 207.61C151.616 207.563 150.53 207.609 149.435 207.748C148.392 207.845 147.355 208.131 146.326 208.606C146.139 208.589 145.954 208.55 145.772 208.487C145.636 208.428 145.474 208.39 145.287 208.374C143.797 208.196 142.37 208.377 141.005 208.917C139.645 209.409 138.308 209.904 136.994 210.401C136.885 210.579 136.826 210.715 136.818 210.809C136.793 211.089 136.815 211.373 136.884 211.661C137.004 211.907 137.052 212.17 137.027 212.45C136.977 212.493 136.949 212.538 136.945 212.584C136.941 212.631 136.914 212.676 136.863 212.718C136.796 212.948 136.708 213.152 136.598 213.33C136.535 213.513 136.447 213.717 136.333 213.942C135.689 215.392 135.281 216.838 135.108 218.282C134.955 219.492 134.852 220.683 134.797 221.854C134.742 223.026 134.638 224.217 134.485 225.427C134.262 226.913 133.906 228.293 133.419 229.568C133.555 230.709 133.661 231.919 133.738 233.196C133.819 234.426 133.947 235.661 134.121 236.899C134.296 238.138 134.519 239.358 134.791 240.558C135.113 241.715 135.557 242.836 136.121 243.921C136.066 244.01 136.083 244.082 136.173 244.137C136.262 244.192 136.353 244.223 136.447 244.232L137.007 244.281C137.24 244.301 137.326 244.403 137.263 244.585C137.344 244.734 137.402 244.88 137.436 245.024C137.475 245.122 137.56 245.223 137.692 245.329C137.773 245.477 137.757 245.664 137.643 245.889C137.515 246.819 137.206 247.663 136.717 248.42C136.228 249.177 135.895 250.018 135.721 250.944C135.148 251.035 134.628 251.06 134.161 251.019C133.372 250.903 132.692 250.608 132.121 250.135C131.547 249.708 131.027 249.192 130.562 248.587C130.097 247.982 129.656 247.378 129.238 246.777C128.824 246.129 128.355 245.57 127.831 245.101C127.618 243.765 127.417 242.289 127.229 240.672C127.087 239.06 126.714 237.663 126.112 236.481C126.335 236.077 126.473 235.572 126.526 234.964C126.654 234.035 126.64 233.116 126.484 232.208C126.378 231.258 126.413 230.32 126.588 229.394C126.633 228.88 126.724 228.371 126.862 227.865C127.047 227.364 127.185 226.858 127.277 226.349C127.392 225.559 127.366 224.78 127.198 224.013C127.076 223.249 127.073 222.472 127.189 221.683C127.268 221.313 127.369 220.969 127.491 220.65C127.663 220.289 127.879 219.978 128.137 219.719C127.952 219.138 127.929 218.595 128.067 218.089C128.183 217.299 128.341 216.56 128.542 215.872C128.743 215.184 128.898 214.492 129.005 213.795C129.038 213.422 129.045 213.069 129.027 212.738C129.013 212.361 128.973 212.004 128.908 211.669L128.296 211.404C128.016 211.38 127.73 211.425 127.437 211.541C127.192 211.66 126.967 211.805 126.764 211.976C126.561 212.146 126.384 212.295 126.231 212.423C126.083 212.504 125.939 212.539 125.799 212.527C125.705 212.518 125.589 212.508 125.449 212.496C125.359 212.441 125.268 212.41 125.174 212.401C125.081 212.393 124.886 212.47 124.59 212.633C124.34 212.799 124.018 212.982 123.624 213.183C123.281 213.341 122.936 213.523 122.589 213.728C122.246 213.886 121.979 213.98 121.788 214.011C121.282 213.872 120.876 213.672 120.57 213.41C120.314 213.105 120.056 212.824 119.796 212.566C119.587 212.265 119.351 212.009 119.087 211.798C118.827 211.54 118.485 211.416 118.06 211.426C117.945 211.134 117.901 210.824 117.93 210.497C117.911 210.166 117.94 209.839 118.015 209.516L118.113 208.396C118.492 207.817 118.979 207.366 119.572 207.041C120.122 206.666 120.713 206.364 121.344 206.137L123.239 205.456C123.87 205.229 124.461 204.928 125.011 204.553L125.642 204.608C126.478 204.728 127.216 204.628 127.856 204.307C128.542 203.991 129.186 203.624 129.787 203.206C130.392 202.741 130.997 202.277 131.602 201.812C132.254 201.351 132.942 201.012 133.667 200.793C134.16 201.071 134.679 201.328 135.223 201.564C135.771 201.753 136.347 201.898 136.95 201.998C137.557 202.051 138.196 202.012 138.866 201.883C139.536 201.753 140.08 201.448 140.498 200.967C140.723 201.081 140.904 201.167 141.04 201.226C141.227 201.243 141.437 201.261 141.671 201.281C142.367 201.389 143.076 201.357 143.796 201.185C144.521 200.966 145.227 200.699 145.913 200.382C146.843 200.511 147.758 200.544 148.657 200.481C149.607 200.376 150.534 200.269 151.438 200.16C152.388 200.055 153.313 199.971 154.212 199.908C155.162 199.803 156.102 199.815 157.032 199.943C158.569 200.125 160.099 200.118 161.622 199.922C163.144 199.725 164.672 199.741 166.205 199.97C167.275 200.11 168.318 200.296 169.333 200.526C170.399 200.713 171.471 200.83 172.549 200.878C173.131 201.211 173.646 201.515 174.093 201.789C174.59 202.021 175.216 202.123 175.972 202.095C177.356 203.486 178.582 205.076 179.65 206.863L179.546 208.054C179.406 209.124 179.127 210.158 178.711 211.157C178.295 212.156 177.808 213.149 177.252 214.135C176.746 215.079 176.194 216.019 175.595 216.954C175 217.843 174.428 218.734 173.88 219.628C170.604 222.117 167.331 224.583 164.06 227.026C160.788 229.469 157.432 231.811 153.99 234.05C153.856 234.509 153.679 234.917 153.46 235.274C153.287 235.636 153.16 236.024 153.076 236.441C153.056 236.674 153.063 236.863 153.097 237.007C153.416 237.129 153.68 237.34 153.889 237.641C154.149 237.899 154.214 238.234 154.084 238.646L154.714 238.701C154.948 238.722 155.056 238.825 155.04 239.012L156.155 239.18C157.921 239.429 159.7 239.538 161.49 239.506C163.281 239.475 165.074 239.42 166.869 239.341C168.71 239.267 170.526 239.215 172.317 239.183C174.112 239.105 175.899 239.12 177.677 239.229C178.11 239.125 178.563 239.047 179.038 238.995C179.514 238.942 179.95 238.792 180.348 238.545L180.558 238.563C180.885 238.592 181.11 238.706 181.234 238.905C181.405 239.108 181.651 239.247 181.974 239.322C182.208 239.343 182.445 239.316 182.687 239.243C182.975 239.175 183.261 239.129 183.546 239.107C184.216 238.977 184.903 238.92 185.608 238.934C186.359 238.953 187.089 238.946 187.797 238.914C190.526 238.918 193.223 239.013 195.889 239.199C198.559 239.338 201.251 239.221 203.966 238.847C204.171 239.194 204.477 239.456 204.885 239.633C205.297 239.763 205.731 239.919 206.186 240.1C206.644 240.234 207.055 240.388 207.416 240.56C207.824 240.737 208.08 241.042 208.183 241.474ZM235.1 215.244C234.784 215.64 234.579 216.093 234.488 216.602C234.397 217.112 234.332 217.577 234.296 217.997C234.247 218.558 234.198 219.118 234.149 219.678C234.151 220.196 234.13 220.712 234.085 221.226L233.994 222.276C233.872 222.595 233.703 222.91 233.488 223.22C233.273 223.531 233.104 223.845 232.982 224.164C232.178 225.835 231.701 227.534 231.55 229.262L231.538 229.402C231.256 229.942 230.977 230.435 230.703 230.882C230.476 231.332 230.248 231.783 230.021 232.233C229.797 232.637 229.617 233.092 229.478 233.598C229.344 234.056 229.272 234.615 229.262 235.273C228.466 236.85 227.472 238.269 226.28 239.529C225.092 240.742 223.923 242.005 222.774 243.316C221.761 243.604 220.807 244.014 219.914 244.548C219.067 245.085 218.238 245.695 217.425 246.377C215.937 246.717 214.466 247.13 213.012 247.614C211.559 248.099 210.227 248.805 209.016 249.735C208.121 249.75 207.221 249.813 206.318 249.922C205.414 250.031 204.526 250.236 203.653 250.536L202.813 250.462C202.392 250.426 202.097 250.306 201.926 250.102C201.291 250.376 200.64 250.555 199.974 250.637C199.312 250.674 198.654 250.663 198.001 250.606C197.16 250.532 196.324 250.412 195.491 250.245C194.71 250.036 193.905 249.824 193.076 249.61C192.666 248.916 192.055 248.368 191.243 247.968C190.435 247.521 189.719 247.105 189.093 246.721C187.902 244.735 187.078 242.851 186.621 241.07C186.169 239.242 185.711 237.202 185.249 234.95C185.399 234.305 185.618 233.689 185.904 233.102C186.194 232.469 186.349 231.776 186.367 231.025C187.419 228.67 188.708 226.572 190.233 224.729C191.809 222.843 193.563 221.068 195.496 219.402C195.521 219.121 195.588 218.892 195.697 218.713C195.854 218.539 195.902 218.261 195.841 217.879C195.883 217.93 195.975 217.961 196.115 217.974C196.488 218.006 196.73 217.933 196.84 217.755C196.953 217.529 196.999 217.275 196.977 216.99C198.751 216.063 200.377 214.959 201.853 213.676C203.376 212.398 205.066 211.369 206.921 210.591C207.098 210.183 207.362 209.853 207.713 209.601C208.065 209.35 208.35 209.045 208.569 208.688C210.1 208.398 211.509 207.886 212.797 207.152C214.084 206.418 215.433 205.783 216.844 205.248C217.628 204.893 218.353 204.674 219.019 204.591C219.736 204.466 220.499 204.344 221.309 204.227C221.598 204.158 221.86 204.11 222.098 204.084C222.336 204.058 222.594 204.057 222.875 204.081C223.715 204.155 224.518 204.39 225.283 204.786C226.053 205.136 226.858 205.348 227.698 205.421C227.932 205.442 228.119 205.458 228.259 205.47C228.45 205.44 228.64 205.409 228.831 205.379C229.54 206.429 230.479 207.264 231.648 207.884C231.867 208.609 232.141 209.245 232.47 209.791C232.845 210.342 233.221 210.892 233.596 211.443C233.976 211.946 234.303 212.516 234.577 213.152C234.902 213.745 235.076 214.442 235.1 215.244ZM227.779 218.274C227.799 218.04 227.794 217.828 227.763 217.637C227.309 217.456 226.881 217.231 226.481 216.961C226.081 216.69 225.625 216.533 225.111 216.488C224.784 216.459 224.451 216.501 224.112 216.612C224.094 216.281 223.974 216.035 223.753 215.875C223.578 215.718 223.355 215.581 223.083 215.463C222.862 215.303 222.613 215.187 222.337 215.116C222.111 215.002 221.914 214.843 221.743 214.64C221.635 214.254 221.505 213.866 221.35 213.477C221.247 213.044 220.993 212.716 220.589 212.492C220.132 212.876 219.611 213.183 219.027 213.414C218.446 213.599 217.842 213.781 217.214 213.962C216.634 214.146 216.049 214.377 215.46 214.655C214.918 214.937 214.44 215.295 214.026 215.729L212.765 215.619C212.44 216.108 212.008 216.47 211.47 216.706C210.936 216.894 210.462 217.206 210.048 217.64C209.268 217.948 208.527 218.354 207.824 218.857C207.173 219.318 206.517 219.825 205.857 220.379C205.201 220.886 204.543 221.417 203.883 221.971C203.27 222.529 202.614 223.036 201.916 223.492C201.195 224.747 200.418 225.832 199.585 226.747C198.803 227.62 198.043 228.518 197.304 229.441C196.611 230.369 195.981 231.396 195.412 232.522C194.894 233.606 194.562 234.989 194.415 236.67L194.354 237.371C194.334 237.604 194.337 237.84 194.363 238.077C194.914 238.784 195.343 239.527 195.651 240.307C196.006 241.091 196.637 241.687 197.542 242.096C198.444 242.551 199.41 242.801 200.441 242.844C201.519 242.891 202.537 243.098 203.493 243.464C205.771 243.24 207.978 242.75 210.114 241.996C212.301 241.199 214.387 240.206 216.373 239.015C216.673 238.806 217.021 238.601 217.415 238.4C217.813 238.153 218.14 237.899 218.398 237.639C218.652 237.426 218.861 237.186 219.026 236.918C219.237 236.654 219.446 236.413 219.653 236.196C220.08 235.622 220.553 235.052 221.073 234.485C221.593 233.919 222.132 233.402 222.69 232.933C223.013 231.926 223.402 230.972 223.857 230.071C224.316 229.123 224.773 228.198 225.228 227.297C225.683 226.396 226.07 225.465 226.389 224.505C226.754 223.548 226.984 222.533 227.078 221.459C227.098 221.226 227.097 220.967 227.075 220.683C227.099 220.402 227.098 220.144 227.072 219.906C227.49 219.425 227.726 218.881 227.779 218.274ZM289.715 212.965C289.445 213.365 289.292 213.775 289.255 214.195C289.218 214.616 289.135 215.032 289.005 215.444C288.581 215.454 288.148 215.557 287.708 215.754C287.267 215.951 286.827 216.147 286.386 216.344C285.992 216.545 285.575 216.744 285.134 216.94C284.698 217.09 284.269 217.147 283.849 217.11C283.475 217.078 283.135 216.93 282.829 216.668C282.522 216.406 282.264 216.125 282.055 215.824C281.19 216.031 280.266 216.114 279.281 216.075C278.3 215.989 277.294 215.925 276.263 215.882C275.282 215.796 274.295 215.78 273.303 215.834C272.361 215.846 271.474 216.027 270.644 216.378C270.747 216.811 270.802 217.263 270.808 217.734C270.865 218.162 270.922 218.591 270.978 219.019C271.082 219.452 271.211 219.863 271.365 220.253C271.566 220.647 271.841 221 272.19 221.313C272.145 221.827 272.151 222.298 272.208 222.726C272.265 223.155 272.273 223.602 272.232 224.069C272.872 225.913 273.555 227.785 274.284 229.684C275.013 231.583 275.455 233.527 275.611 235.517C275.66 236.039 275.795 236.38 276.016 236.54C276.288 236.658 276.437 236.836 276.463 237.074L276.262 239.385C276.727 239.991 277.022 240.652 277.148 241.368C277.324 242.043 277.427 242.757 277.455 243.513C277.488 244.221 277.495 244.951 277.476 245.703C277.458 246.454 277.488 247.186 277.567 247.899C277.254 248.248 276.94 248.62 276.623 249.016C276.353 249.416 276.195 249.872 276.151 250.386C276.114 250.806 276.134 251.114 276.211 251.309C275.702 251.217 275.339 251.327 275.124 251.637C274.909 251.948 274.736 252.309 274.606 252.721C273.814 253.17 273.022 253.618 272.23 254.066C271.443 254.468 270.693 254.967 269.983 255.563C269.465 255.565 268.988 255.641 268.551 255.791C268.161 255.945 267.699 256.117 267.165 256.305C266.644 256.354 266.103 256.353 265.542 256.304L264.001 256.169C262.414 256.03 260.832 255.822 259.256 255.542C257.732 255.221 256.186 254.874 254.618 254.501C254.009 253.931 253.293 253.515 252.469 253.255C251.648 252.948 250.845 252.713 250.06 252.55C249.315 251.92 248.43 251.278 247.404 250.623C246.379 249.969 245.398 249.624 244.46 249.589C244.244 248.818 243.846 248.265 243.263 247.932C242.68 247.599 242.064 247.38 241.414 247.276C241.473 247.14 241.515 246.932 241.539 246.652C241.568 246.325 241.495 246.083 241.32 245.927C241.15 245.724 240.952 245.565 240.726 245.451C240.505 245.291 240.259 245.152 239.986 245.034C239.718 244.869 239.497 244.709 239.323 244.552C238.842 244.134 238.435 243.674 238.102 243.175C237.773 242.628 237.444 242.082 237.115 241.536C236.786 240.989 236.432 240.464 236.053 239.961C235.673 239.457 235.243 238.996 234.762 238.577C234.668 237.487 234.55 236.418 234.406 235.37C234.266 234.275 234.243 233.191 234.336 232.117C234.369 231.743 234.516 231.403 234.778 231.097C235.04 230.79 235.323 230.509 235.628 230.254C235.932 229.998 236.239 229.719 236.548 229.417C236.856 229.114 237.074 228.78 237.2 228.415C237.872 228.803 238.674 229.038 239.608 229.12C240.636 229.21 241.652 229.157 242.657 228.963C243.666 228.722 244.708 228.648 245.782 228.742C246.109 228.771 246.408 228.844 246.68 228.962C246.956 229.033 247.234 229.081 247.514 229.106C247.841 229.134 248.036 229.057 248.099 228.875C248.213 228.649 248.457 228.553 248.83 228.586C249.484 228.643 250.022 228.949 250.444 229.503C250.87 230.011 251.277 230.47 251.665 230.881C251.561 231.53 251.311 231.979 250.913 232.226C250.515 232.474 250.179 232.821 249.904 233.267C249.153 233.249 248.487 233.332 247.907 233.516C247.377 233.658 246.843 233.847 246.305 234.082C245.771 234.27 245.215 234.433 244.639 234.571C244.062 234.709 243.353 234.741 242.513 234.668C242.233 234.643 241.981 234.833 241.758 235.237C241.534 235.641 241.298 235.926 241.048 236.092C241.389 236.498 241.681 236.924 241.925 237.369C242.215 237.818 242.482 238.264 242.725 238.709C243.02 239.111 243.365 239.471 243.761 239.788C244.157 240.105 244.652 240.36 245.247 240.553C245.308 240.935 245.421 241.251 245.588 241.501C245.805 241.708 245.969 241.981 246.081 242.32C247.122 242.788 248.064 243.317 248.907 243.909C249.753 244.453 250.6 244.998 251.447 245.542C252.297 246.04 253.175 246.494 254.081 246.902C254.986 247.311 256.04 247.638 257.242 247.885C257.611 247.964 257.762 248.118 257.695 248.348C257.632 248.53 257.716 248.655 257.945 248.723C258.132 248.739 258.342 248.757 258.575 248.778C258.86 248.756 259.095 248.753 259.282 248.769C259.796 248.814 260.282 248.903 260.741 249.038C261.2 249.172 261.678 249.355 262.175 249.587C262.752 249.449 263.466 249.347 264.319 249.28C265.223 249.171 266.083 249.011 266.902 248.8C267.771 248.547 268.506 248.211 269.107 247.794C269.712 247.329 270.051 246.676 270.124 245.836C270.25 244.388 270.063 243.031 269.562 241.763C269.064 240.449 268.711 239.101 268.502 237.718C268.45 237.243 268.424 236.723 268.427 236.159C268.429 235.594 268.384 235.026 268.293 234.453C268.248 233.884 268.128 233.38 267.931 232.939C267.785 232.456 267.49 232.054 267.048 231.733C267.08 231.359 267.068 230.958 267.011 230.53C266.959 230.054 266.68 229.748 266.174 229.609C266.123 228.57 265.929 227.564 265.59 226.594C265.302 225.58 264.965 224.586 264.579 223.611C264.24 222.641 263.927 221.649 263.639 220.635C263.35 219.622 263.206 218.574 263.207 217.492C261.712 217.361 260.251 217.398 258.821 217.602C257.392 217.807 255.956 218.081 254.515 218.425C253.124 218.727 251.708 219.05 250.266 219.395C248.829 219.692 247.397 219.92 245.972 220.078C245.164 219.63 244.455 219.121 243.846 218.551C243.284 217.984 242.495 217.585 241.48 217.355C241.673 216.761 241.849 216.094 242.007 215.355C242.166 214.616 242.392 213.906 242.687 213.226C242.981 212.546 243.361 211.968 243.826 211.491C244.295 210.967 244.89 210.619 245.611 210.447C246.346 210.652 247.18 210.796 248.114 210.878C249.515 211 250.886 210.932 252.226 210.673C253.566 210.414 254.931 210.133 256.322 209.831L256.882 209.88C258.237 209.999 259.722 209.964 261.338 209.776C262.954 209.588 264.417 209.269 265.727 208.819C265.905 208.929 265.965 209.052 265.906 209.188C265.898 209.281 265.985 209.36 266.168 209.423C266.722 209.001 267.424 208.78 268.273 208.76C269.121 208.74 269.989 208.769 270.877 208.846C271.815 208.881 272.708 208.889 273.557 208.869C274.405 208.849 275.107 208.628 275.661 208.206C276.295 208.497 276.957 208.72 277.65 208.874C278.393 208.987 279.138 209.075 279.885 209.141C280.819 209.222 281.732 209.279 282.623 209.31C283.565 209.298 284.505 209.31 285.443 209.345C285.171 209.227 285.041 209.098 285.053 208.958C285.061 208.864 285.12 208.728 285.23 208.55C285.825 208.743 286.341 209.023 286.78 209.391C287.269 209.716 287.813 209.952 288.412 210.098C288.252 210.32 288.159 210.57 288.135 210.851C288.09 211.364 288.266 211.78 288.662 212.097C289.061 212.367 289.413 212.656 289.715 212.965ZM332.18 219.716L332.156 219.996C331.821 220.061 331.637 220.28 331.604 220.654C331.07 220.842 330.517 220.982 329.945 221.073C329.376 221.117 328.825 221.234 328.291 221.422C327.781 221.331 327.246 221.26 326.686 221.211C326.176 221.12 325.665 221.052 325.151 221.007C323.75 220.884 322.345 220.808 320.936 220.779C319.527 220.75 318.126 220.627 316.733 220.411C316.047 220.728 315.297 220.968 314.483 221.132C313.719 221.253 312.987 221.283 312.287 221.222C311.726 221.173 311.242 221.06 310.834 220.883C309.665 221.345 308.387 221.704 307 221.959C305.66 222.218 304.296 222.476 302.91 222.731C301.527 222.939 300.185 223.222 298.883 223.578C297.633 223.892 296.506 224.405 295.503 225.117C295.352 225.763 295.225 226.411 295.122 227.06C295.022 227.663 294.946 228.268 294.893 228.876C294.836 229.529 294.806 230.138 294.804 230.703C294.849 231.271 294.963 231.846 295.148 232.427C295.373 232.541 295.624 232.633 295.9 232.704C296.223 232.78 296.501 232.828 296.735 232.848C296.968 232.868 297.204 232.866 297.441 232.839C297.683 232.766 297.861 232.617 297.974 232.392C298.683 232.36 299.385 232.398 300.082 232.506C300.782 232.567 301.483 232.628 302.183 232.69C302.884 232.751 303.563 232.787 304.221 232.797C304.925 232.812 305.612 232.754 306.282 232.625C307.046 232.503 307.78 232.45 308.484 232.465C309.235 232.483 309.963 232.5 310.668 232.514C311.372 232.529 312.102 232.522 312.858 232.494C313.617 232.42 314.41 232.23 315.236 231.926C315.823 232.213 316.42 232.383 317.027 232.436C317.681 232.493 318.307 232.595 318.906 232.741C319.212 233.003 319.447 233.283 319.609 233.579C319.818 233.88 319.907 234.217 319.874 234.59C319.817 235.244 319.527 235.878 319.003 236.491C318.479 237.103 318.052 237.678 317.723 238.214L316.953 238.146C315.832 238.048 314.72 238.116 313.618 238.349C312.566 238.539 311.485 238.797 310.374 239.123C309.315 239.407 308.233 239.665 307.131 239.898C306.079 240.089 304.993 240.135 303.872 240.037C303.685 240.02 303.558 240.127 303.491 240.356C303.475 240.543 303.416 240.679 303.315 240.764C303.085 240.697 302.737 240.643 302.27 240.602C301.196 240.508 300.159 240.535 299.158 240.683C298.157 240.831 297.143 240.859 296.115 240.77C295.835 240.745 295.555 240.72 295.275 240.696C294.999 240.625 294.722 240.554 294.446 240.482C294.18 240.835 293.854 241.066 293.469 241.173C293.087 241.234 292.72 241.39 292.369 241.642C292.192 242.05 292.054 242.555 291.955 243.158C291.902 243.765 291.824 244.394 291.72 245.043C291.667 245.65 291.569 246.23 291.427 246.782C291.285 247.334 291.06 247.762 290.751 248.064C290.777 248.302 290.956 248.411 291.287 248.393C291.622 248.328 291.773 248.483 291.741 248.856C291.704 249.277 291.619 249.716 291.485 250.175C291.35 250.634 291.263 251.097 291.222 251.564C291.145 252.451 291.153 253.44 291.246 254.53C291.39 255.578 291.634 256.564 291.977 257.488C292.366 258.416 292.908 259.216 293.603 259.889C294.301 260.515 295.21 260.877 296.331 260.975C297.078 261.04 297.791 260.961 298.469 260.738C299.147 260.515 299.725 260.095 300.202 259.478L300.559 259.439C300.745 259.455 300.907 259.493 301.043 259.552C301.225 259.615 301.41 259.655 301.597 259.671C301.877 259.695 302.242 259.563 302.69 259.272C303.19 258.94 303.717 258.562 304.271 258.14C304.872 257.722 305.471 257.328 306.068 256.957C306.669 256.539 307.235 256.259 307.765 256.117C308.149 255.492 308.509 254.864 308.846 254.235C309.23 253.61 309.742 253.137 310.381 252.817L310.558 250.785C311.07 250.313 311.601 249.888 312.151 249.513C312.748 249.142 313.215 248.642 313.552 248.012C313.778 248.126 313.982 248.215 314.165 248.278C314.394 248.345 314.625 248.389 314.859 248.409C315.092 248.429 315.328 248.427 315.565 248.4C315.85 248.378 316.113 248.331 316.354 248.258C316.683 248.804 316.912 249.412 317.042 250.082C317.223 250.71 317.452 251.318 317.73 251.907C317.237 252.711 316.659 253.672 315.997 254.79C315.335 255.909 314.626 257.023 313.871 258.133C313.115 259.244 312.317 260.303 311.476 261.312C310.686 262.278 309.917 263.01 309.167 263.509C309.015 263.637 308.697 263.774 308.214 263.92C307.668 264.249 307.17 264.558 306.722 264.848C306.269 265.185 305.835 265.571 305.421 266.005C304.03 266.307 302.674 266.753 301.352 267.343C300.077 267.937 298.804 268.508 297.533 269.055C296.985 268.866 296.384 268.743 295.73 268.686C295.17 268.637 294.607 268.611 294.043 268.609C293.474 268.653 292.863 268.647 292.209 268.59C292.043 268.34 291.777 268.152 291.412 268.026C291.089 267.95 290.992 267.707 291.122 267.295C289.543 267.062 288.297 266.506 287.386 265.627C286.47 264.794 285.711 263.786 285.108 262.604C284.552 261.426 284.121 260.165 283.815 258.821C283.508 257.476 283.175 256.177 282.813 254.922L282.832 254.712C282.852 254.478 282.958 254.346 283.148 254.316C283.339 254.285 283.445 254.154 283.465 253.92C283.473 253.827 283.456 253.755 283.413 253.704C283.318 253.178 283.24 252.724 283.179 252.342C283.118 251.96 283.11 251.513 283.155 250.999C283.22 250.252 283.33 249.532 283.484 248.84C283.643 248.101 283.755 247.358 283.82 246.611C283.885 245.863 283.848 245.201 283.71 244.625C283.918 244.408 284.107 244.118 284.28 243.757C284.41 243.345 284.517 242.931 284.6 242.515C284.683 242.098 284.743 241.68 284.78 241.26C284.863 240.844 284.966 240.476 285.088 240.157C284.946 239.627 284.821 239.17 284.713 238.784C284.61 238.351 284.582 237.855 284.631 237.294L284.674 236.804C285.21 236.051 285.678 235.268 286.078 234.457C286.478 233.645 286.904 232.811 287.355 231.957L287.373 231.747C287.491 230.392 287.562 229.034 287.587 227.672C287.612 226.309 287.683 224.951 287.801 223.597L287.917 222.266C287.957 221.799 288.019 221.357 288.103 220.941C288.493 220.787 288.795 220.554 289.01 220.244C289.226 219.933 289.528 219.701 289.918 219.547L292.23 219.749L292.711 219.086C292.871 218.864 292.987 218.616 293.058 218.34C293.584 218.244 294.091 218.101 294.578 217.908C295.116 217.673 295.607 217.433 296.052 217.19C296.738 216.874 297.351 216.598 297.889 216.362C298.477 216.085 299.037 215.875 299.567 215.733C300.148 215.548 300.747 215.413 301.367 215.326C301.986 215.239 302.697 215.183 303.499 215.159C303.872 215.192 304.112 215.142 304.217 215.011C304.37 214.883 304.571 214.736 304.82 214.569C305.373 214.712 305.925 214.854 306.477 214.997C307.033 215.092 307.592 215.165 308.152 215.214C309.273 215.312 310.342 215.194 311.359 214.859C312.76 214.982 314.14 215.079 315.498 215.151C316.903 215.227 318.306 215.326 319.707 215.448C320.921 215.555 322.131 215.708 323.337 215.907C324.543 216.107 325.719 216.374 326.866 216.71C327.299 216.607 327.772 216.578 328.285 216.623C328.846 216.672 329.4 216.791 329.948 216.98C330.547 217.126 331.131 217.177 331.699 217.133C331.701 217.651 331.779 218.105 331.934 218.495C332.139 218.842 332.221 219.249 332.18 219.716ZM378.569 255.96C378.528 256.427 378.354 256.812 378.045 257.114C377.787 257.374 377.461 257.604 377.067 257.805C376.72 258.01 376.351 258.189 375.962 258.343C375.618 258.502 375.295 258.709 374.99 258.964C374.787 259.135 374.626 259.356 374.509 259.628C374.442 259.857 374.311 260.011 374.116 260.088C373.815 260.297 373.499 260.41 373.169 260.428C372.838 260.446 372.481 260.486 372.1 260.546C371.769 260.565 371.434 260.629 371.095 260.741C370.759 260.806 370.461 260.991 370.199 261.298C367.984 261.339 365.786 261.453 363.606 261.638C361.472 261.828 359.284 261.825 357.043 261.629C356.622 261.592 356.151 261.598 355.629 261.646C355.158 261.652 354.711 261.66 354.286 261.67C353.298 261.677 352.311 261.662 351.326 261.623C350.388 261.588 349.429 261.527 348.448 261.441C347.094 261.323 345.744 261.158 344.398 260.946C343.056 260.687 341.743 260.361 340.46 259.966C340.154 259.704 339.796 259.484 339.388 259.307C338.98 259.131 338.549 258.952 338.094 258.771C337.686 258.594 337.303 258.396 336.946 258.176C336.589 257.957 336.333 257.652 336.179 257.262C335.482 257.154 334.864 256.959 334.324 256.676C333.831 256.398 333.363 256.098 332.92 255.777C332.529 255.413 332.113 255.048 331.675 254.68C331.236 254.312 330.724 253.985 330.137 253.698C329.727 253.004 329.292 252.331 328.831 251.678C328.421 250.984 327.884 250.396 327.22 249.914C327.157 249.015 327.001 248.107 326.752 247.191C326.549 246.279 326.32 245.389 326.067 244.52C325.864 243.608 325.708 242.7 325.598 241.797C325.442 240.889 325.405 239.968 325.486 239.034C325.543 238.38 325.706 237.595 325.974 236.677C326.242 235.759 326.557 234.846 326.918 233.936C327.331 232.984 327.783 232.106 328.277 231.303C328.77 230.499 329.25 229.858 329.715 229.382C329.867 229.254 330.041 229.151 330.236 229.074C330.43 228.997 330.606 228.871 330.762 228.697C331.223 228.267 331.7 227.932 332.191 227.693C332.686 227.407 333.209 227.076 333.76 226.701C333.963 226.53 334.121 226.332 334.235 226.107C334.395 225.886 334.6 225.692 334.85 225.525C334.998 225.444 335.187 225.437 335.417 225.504C335.693 225.576 335.93 225.549 336.129 225.426C336.328 225.302 336.436 225.147 336.452 224.96C336.468 224.773 336.553 224.616 336.705 224.488C336.756 224.445 336.896 224.458 337.125 224.525C337.359 224.545 337.499 224.557 337.545 224.561C337.872 224.59 338.264 224.413 338.721 224.029C339.182 223.599 339.559 223.326 339.851 223.21C340.194 223.052 340.531 222.964 340.862 222.946C341.197 222.881 341.56 222.772 341.95 222.618C342.488 222.382 342.996 222.215 343.475 222.116C344.005 221.974 344.537 221.809 345.071 221.62C345.36 221.551 345.631 221.411 345.884 221.197C346.138 220.984 346.386 220.841 346.628 220.768C347.06 220.665 347.512 220.611 347.983 220.605C348.505 220.556 348.978 220.527 349.402 220.517C349.877 220.465 350.329 220.41 350.757 220.353C351.237 220.254 351.677 220.057 352.079 219.763L352.64 219.812C353.48 219.886 354.307 219.841 355.122 219.677C355.936 219.513 356.763 219.467 357.604 219.541C357.837 219.561 358.183 219.639 358.642 219.773C359.036 219.572 359.467 219.492 359.934 219.533C360.727 219.602 361.503 219.882 362.26 220.372C363.021 220.815 363.822 221.073 364.663 221.147L365.083 221.183C365.27 221.2 365.459 221.193 365.65 221.162C366.119 221.721 366.701 222.054 367.398 222.162C368.141 222.274 368.753 222.54 369.234 222.958C369.536 223.267 369.765 223.616 369.919 224.006C370.12 224.4 370.272 224.814 370.376 225.246L370.686 226.544C370.789 226.976 370.944 227.366 371.149 227.714C370.769 229.374 369.95 230.667 368.693 231.592C367.487 232.475 366.02 232.841 364.292 232.69C363.639 232.632 363.084 232.513 362.63 232.332C362.226 232.109 361.845 231.887 361.488 231.668C361.177 231.452 360.843 231.235 360.486 231.015C360.129 230.796 359.721 230.619 359.262 230.485C359.857 229.596 360.271 228.62 360.505 227.559C360.011 227.28 359.512 227.072 359.006 226.933C358.501 226.795 358.025 226.589 357.578 226.314C356.289 226.531 355.031 226.656 353.805 226.69C352.629 226.681 351.489 227.076 350.385 227.873C350.155 227.806 349.902 227.737 349.626 227.665C349.397 227.598 349.165 227.555 348.932 227.534C348.652 227.51 348.073 227.671 347.196 228.017C346.323 228.317 345.374 228.681 344.348 229.109C343.37 229.541 342.414 229.975 341.482 230.411C340.597 230.851 339.983 231.151 339.64 231.309C339.246 231.51 338.894 231.761 338.586 232.064C338.277 232.366 337.966 232.692 337.654 233.041C337.345 233.343 337.036 233.645 336.728 233.948C336.423 234.203 336.055 234.383 335.622 234.486C335.484 234.992 335.282 235.421 335.016 235.774C334.75 236.127 334.458 236.502 334.142 236.898C334.022 237.734 333.855 238.567 333.642 239.395C333.475 240.227 333.355 241.064 333.282 241.904L333.203 242.815C333.178 243.095 333.203 243.356 333.276 243.598C333.69 244.246 334.004 244.955 334.219 245.727C334.481 246.503 334.973 247.064 335.696 247.409C335.727 247.6 335.693 247.715 335.596 247.753C335.545 247.796 335.488 247.908 335.425 248.091C335.66 248.629 335.974 249.08 336.366 249.444C336.808 249.765 337.249 250.109 337.687 250.477C338.13 250.798 338.547 251.141 338.939 251.504C339.331 251.868 339.621 252.317 339.81 252.851C340.51 252.912 341.154 253.086 341.74 253.373C342.374 253.663 342.959 253.973 343.494 254.303C344.077 254.636 344.615 254.942 345.108 255.22C345.648 255.503 346.199 255.669 346.759 255.718C347.273 255.763 347.746 255.733 348.178 255.63C349.36 256.11 350.549 256.496 351.747 256.789C352.996 257.04 354.251 257.22 355.511 257.33C357.052 257.465 358.601 257.507 360.159 257.455C361.716 257.403 363.271 257.374 364.824 257.369C365.393 257.325 365.934 257.325 366.448 257.37C366.961 257.415 367.479 257.413 368.001 257.365C368.663 257.328 369.296 257.078 369.901 256.613C370.553 256.153 371.169 255.83 371.75 255.646C372.235 256.018 372.828 256.234 373.529 256.295C374.322 256.365 375.103 256.316 375.871 256.147C376.642 255.933 377.425 255.86 378.219 255.929L378.569 255.96ZM441.143 228.756C440.903 229.347 440.551 229.881 440.086 230.358L438.767 231.725C438.352 232.159 437.981 232.644 437.652 233.18C437.374 233.673 437.251 234.274 437.283 234.983C437.19 234.975 437.073 234.964 436.933 234.952C436.797 234.893 436.682 234.86 436.589 234.851C435.841 234.786 435.241 234.922 434.789 235.259C434.387 235.553 433.849 235.788 433.174 235.964C433.105 235.676 433.011 235.409 432.891 235.163C432.776 234.871 432.582 234.665 432.31 234.548C431.169 234.683 430.032 234.772 428.899 234.814C427.77 234.809 426.637 234.851 425.5 234.94C424.978 234.988 424.452 235.083 423.922 235.225C423.397 235.32 422.847 235.413 422.275 235.505C421.986 235.573 421.679 235.594 421.352 235.565C421.029 235.49 420.702 235.461 420.371 235.479C419.247 235.428 418.024 235.415 416.705 235.441C415.389 235.42 414.191 235.668 413.111 236.185C412.652 236.051 412.168 235.938 411.658 235.846C411.149 235.754 410.637 235.686 410.123 235.641C409.003 235.543 407.755 235.552 406.38 235.667C405.057 235.739 403.855 236.034 402.774 236.551C402.549 236.437 402.298 236.345 402.022 236.273C401.793 236.206 401.515 236.158 401.188 236.13C401.094 236.122 401.022 236.139 400.972 236.181C400.925 236.177 400.855 236.171 400.761 236.163C400.678 236.579 400.688 237.004 400.792 237.436C400.946 237.826 401.223 238.156 401.623 238.426C401.391 238.924 401.249 239.476 401.196 240.083C401.127 240.877 401.105 241.675 401.129 242.477C401.2 243.283 401.201 244.083 401.132 244.877C401.054 245.764 400.876 246.454 400.598 246.948C400.943 248.389 401.046 249.904 400.908 251.492C400.859 252.052 400.764 252.609 400.622 253.161C400.53 253.67 400.458 254.229 400.405 254.836C400.36 255.35 400.511 255.786 400.856 256.146C401.205 256.459 401.357 256.872 401.312 257.386C401.296 257.572 401.233 257.755 401.123 257.934C401.789 257.851 402.436 257.719 403.063 257.539C403.695 257.312 404.337 257.227 404.991 257.284C405.365 257.317 405.709 257.417 406.024 257.586C406.385 257.759 406.696 257.974 406.955 258.232C406.888 258.462 406.819 258.714 406.748 258.991C406.724 259.271 406.699 259.551 406.675 259.831C406.63 260.345 406.587 260.835 406.547 261.302C406.557 261.726 406.563 262.197 406.565 262.715C406.134 263.336 405.64 263.881 405.081 264.35C404.57 264.823 404.186 265.448 403.93 266.226C403.229 266.164 402.585 266.272 401.996 266.55C401.458 266.786 400.939 267.07 400.44 267.402C399.944 267.688 399.449 267.974 398.953 268.26C398.462 268.5 397.936 268.595 397.376 268.546C396.675 268.485 396.193 268.348 395.929 268.137C395.669 267.879 395.479 267.627 395.36 267.381C395.24 267.136 395.118 266.913 394.994 266.714C394.917 266.519 394.69 266.429 394.312 266.443C394.272 265.827 394.134 265.251 393.898 264.712C393.667 264.128 393.41 263.564 393.128 263.022C392.893 262.484 392.634 261.943 392.352 261.401C392.12 260.816 391.959 260.237 391.868 259.665C391.693 258.426 391.687 257.155 391.847 255.852C392.008 254.548 391.907 253.269 391.546 252.014C391.697 251.368 391.824 250.721 391.927 250.071C392.035 249.374 392.117 248.699 392.174 248.046C392.288 246.738 392.353 245.45 392.37 244.181C392.437 242.869 392.506 241.534 392.578 240.176C392.287 239.727 392.118 239.242 392.069 238.72C392.071 238.155 392.071 237.614 392.07 237.096C391.942 236.944 391.79 236.79 391.616 236.633C391.488 236.481 391.411 236.286 391.384 236.048C391.019 235.922 390.743 235.851 390.556 235.835C389.902 235.777 389.328 235.892 388.832 236.178C388.388 236.421 387.979 236.527 387.605 236.494C387.231 236.461 386.885 236.384 386.566 236.262C386.248 236.14 385.925 236.065 385.598 236.036C385.318 236.012 385.148 236.067 385.089 236.203C385.081 236.297 384.98 236.382 384.785 236.459C384.637 236.54 384.302 236.605 383.78 236.653C383.258 236.702 382.666 236.744 382.004 236.78C381.393 236.774 380.782 236.767 380.171 236.761C379.606 236.759 379.231 236.749 379.044 236.733C378.297 236.668 377.749 236.479 377.4 236.166C377.008 235.802 376.548 235.409 376.02 234.986C376.138 234.714 376.201 234.532 376.209 234.438C376.25 233.971 376.142 233.585 375.887 233.281C375.635 232.929 375.519 232.637 375.539 232.403C375.584 231.89 375.829 231.511 376.274 231.268C376.672 231.02 376.92 230.595 377.02 229.992C378.135 229.619 379.263 229.365 380.404 229.229C381.545 229.094 382.705 229.007 383.885 228.969C385.064 228.931 386.223 228.868 387.36 228.779C388.543 228.695 389.714 228.491 390.871 228.169C391.194 228.244 391.493 228.317 391.769 228.389C392.096 228.417 392.423 228.446 392.75 228.474C394.151 228.597 395.541 228.577 396.919 228.416C398.349 228.211 399.787 228.173 401.235 228.299C401.608 228.332 401.98 228.388 402.349 228.467C402.719 228.547 403.086 228.65 403.452 228.776C405.344 228.659 407.215 228.517 409.065 228.349C410.961 228.186 412.9 228.073 414.882 228.011C415.824 228 416.74 228.009 417.632 228.04C418.574 228.028 419.518 227.993 420.464 227.935C420.795 227.917 421.034 227.867 421.183 227.786C421.382 227.662 421.497 227.414 421.53 227.04C421.934 227.264 422.393 227.398 422.907 227.443C423.7 227.512 424.483 227.44 425.255 227.225C426.026 227.01 426.809 226.937 427.603 227.007C427.789 227.023 427.951 227.061 428.087 227.12C428.227 227.132 428.367 227.144 428.507 227.157C428.834 227.185 429.01 227.059 429.034 226.779C429.109 226.457 429.361 226.267 429.789 226.21C430.124 226.145 430.598 226.116 431.209 226.123C431.82 226.129 432.454 226.137 433.112 226.148C433.821 226.116 434.459 226.078 435.028 226.033C435.647 225.946 436.107 225.798 436.407 225.589L436.965 224.862C437.801 224.982 438.376 225.409 438.688 226.142C439.052 226.832 439.222 227.577 439.2 228.375C439.37 228.578 439.619 228.694 439.946 228.722C440.323 228.708 440.652 228.713 440.932 228.738L441.143 228.756ZM465.235 267.355C465.166 268.149 464.895 268.831 464.422 269.401C463.999 269.929 463.798 270.617 463.818 271.466C463.132 271.782 462.552 272.226 462.079 272.796C461.606 273.366 461.154 273.962 460.724 274.583C457.467 276.321 454.011 277.642 450.356 278.546C446.744 279.5 443.07 279.814 439.334 279.487C439.101 279.467 438.901 279.332 438.734 279.082C438.564 278.879 438.395 278.652 438.229 278.402C438.063 278.152 437.873 277.901 437.66 277.647C437.489 277.444 437.264 277.33 436.984 277.305C436.657 277.277 436.394 277.324 436.195 277.448C436.203 277.355 436.211 277.261 436.219 277.168C436.27 277.125 436.299 277.057 436.308 276.964C436.356 276.403 436.337 275.813 436.25 275.194C436.159 274.622 436.138 274.055 436.186 273.495C436.243 272.841 436.407 272.314 436.677 271.914L437.517 271.988C437.984 272.029 438.43 272.044 438.854 272.034C439.33 271.982 439.824 271.978 440.338 272.023C440.851 272.068 441.306 272.249 441.702 272.566C444.278 272.697 446.747 272.442 449.109 271.802C451.521 271.119 453.954 270.462 456.409 269.829C456.827 269.348 457.086 268.806 457.186 268.203C457.336 267.558 457.576 266.967 457.905 266.431C456.78 265.298 455.612 264.396 454.4 263.725C453.239 263.011 451.833 262.677 450.182 262.721C449.254 262.028 448.234 261.585 447.122 261.394C446.056 261.207 444.971 260.97 443.866 260.686C443.59 260.614 443.291 260.541 442.968 260.466C442.696 260.348 442.396 260.275 442.069 260.246C441.836 260.226 441.596 260.275 441.351 260.395C441.156 260.472 441.095 260.631 441.168 260.873C440.967 260.479 440.658 260.24 440.242 260.157C439.877 260.031 439.566 259.815 439.31 259.511C437.824 259.286 436.539 258.915 435.455 258.397C434.375 257.832 433.182 257.21 431.877 256.531C431.515 256.358 431.15 256.232 430.78 256.153C430.462 256.031 430.147 255.862 429.836 255.647C429.032 255.153 428.404 254.533 427.952 253.788C427.499 253.042 427.169 252.237 426.962 251.372C426.713 250.456 426.558 249.525 426.5 248.579C426.441 247.633 426.376 246.756 426.305 245.95C426.791 245.24 427.255 244.504 427.697 243.743C428.093 242.978 428.447 242.162 428.758 241.295C429.05 241.179 429.34 241.087 429.629 241.018C429.917 240.949 430.231 240.859 430.57 240.748C430.531 240.65 430.518 240.531 430.53 240.391C430.551 240.158 430.641 239.93 430.801 239.709C431.009 239.492 431.076 239.263 431.003 239.021C432.111 238.177 433.175 237.305 434.195 236.406C435.265 235.465 436.203 234.418 437.009 233.265C437.73 233.093 438.321 232.791 438.782 232.361C439.243 231.931 439.704 231.501 440.165 231.071C440.63 230.594 441.135 230.191 441.681 229.862C442.232 229.487 442.908 229.287 443.71 229.263C443.925 228.953 444.204 228.718 444.547 228.56C444.895 228.355 445.24 228.174 445.583 228.016C445.926 227.857 446.248 227.674 446.548 227.465C446.849 227.256 447.088 226.947 447.264 226.539C448.011 226.605 448.701 226.524 449.332 226.297C450.01 226.074 450.667 225.825 451.303 225.552C451.938 225.278 452.572 225.028 453.203 224.8C453.881 224.577 454.594 224.499 455.341 224.564C455.528 224.58 455.713 224.62 455.896 224.683C456.082 224.699 456.29 224.741 456.52 224.808C456.818 225.164 456.994 225.579 457.046 226.054C457.15 226.487 457.203 226.962 457.205 227.48C457.207 227.998 457.185 228.513 457.14 229.027C457.142 229.545 457.195 230.02 457.299 230.452C456.809 231.209 456.273 231.962 455.69 232.711C455.154 233.464 454.471 234.016 453.64 234.367L453.5 234.355C453.169 234.373 452.872 234.276 452.608 234.065C452.344 233.854 452.025 233.732 451.652 233.699C451.418 233.679 451.225 233.732 451.073 233.86L450.692 234.18C450.591 234.265 450.443 234.346 450.248 234.423C450.099 234.504 449.889 234.486 449.617 234.368C448.943 234.544 448.652 234.919 448.743 235.491C447.848 235.507 447.076 235.722 446.428 236.136C445.785 236.503 445.182 236.944 444.619 237.46C444.061 237.928 443.504 238.374 442.95 238.796C442.4 239.171 441.772 239.352 441.068 239.337C440.152 240.668 439.063 241.82 437.802 242.792C436.588 243.768 435.548 244.901 434.683 246.189C434.791 246.575 434.85 246.98 434.86 247.405C434.87 247.829 434.901 248.279 434.954 248.754C435.325 249.351 435.773 249.884 436.297 250.354C436.867 250.827 437.414 251.298 437.938 251.768L438.148 251.786C439.082 251.868 439.93 252.13 440.691 252.573C441.456 252.97 442.283 253.207 443.17 253.284C443.637 253.325 444.042 253.266 444.385 253.108C445.575 253.495 446.745 253.832 447.896 254.121C449.094 254.414 450.296 254.661 451.502 254.86C452.101 255.007 452.704 255.107 453.311 255.16C453.965 255.217 454.566 255.34 455.114 255.529C455.615 255.714 456.113 255.946 456.606 256.224C457.103 256.456 457.599 256.711 458.092 256.99C459.125 257.551 460.085 258.152 460.97 258.794C461.902 259.441 462.706 260.193 463.384 261.052C464.066 261.865 464.573 262.803 464.904 263.868C465.239 264.885 465.349 266.047 465.235 267.355Z" fill="black"/>
</svg>
