<svg width="616" height="416" viewBox="0 0 616 416" fill="none" xmlns="http://www.w3.org/2000/svg">
<path d="M107.178 245.54C108.872 241.427 111.473 237.082 114.906 233.937C121.337 228.046 133.605 226.196 141.896 223.854C153.714 220.517 166.734 216.3 179.245 218.257C186.815 219.441 196.502 223.406 204.171 222.001C217.97 219.473 230.759 210.878 243.179 205.32C259.251 198.127 274.57 192.743 292.343 190.492C310.458 188.199 328.652 186.792 346.363 182.411C357.234 179.723 368.131 177.146 379.099 174.812C384.921 173.574 390.282 173.766 396.175 173.33C415.036 171.933 433.596 165.821 451.206 159.911C458.074 157.606 465.957 153.124 473.543 152.793C481.416 152.45 488.483 156.965 496.122 158.131" stroke="#787878" stroke-width="10" stroke-linecap="round"/>
<path d="M115.491 291.877C128.351 291.035 141.432 288.9 153.447 284.537C164.387 280.564 174.304 274.65 185.171 270.525C197.287 265.926 211.259 262.461 224.502 262.704C233.294 262.865 241.885 266.413 250.035 269.08C261.223 272.74 272.583 264.418 281.8 259.256C294.819 251.965 307.706 244.621 322.831 241.686C330.153 240.265 337.535 240.5 344.965 240.5C363.295 240.5 379.973 236.278 397.488 231.232C417.102 225.582 437.059 220.287 456.93 215.441C477.485 210.429 499.459 211.326 519.731 205.136" stroke="#787878" stroke-width="10" stroke-linecap="round"/>
<path d="M139.394 346.035C159.207 335.837 180.884 327.858 202.469 321.713C221.285 316.358 241.334 312.995 260.923 311.749C274.523 310.884 288.346 311.673 301.356 315.698C312.297 319.083 324.352 314.157 334.874 311.49C344.949 308.937 355.032 306.549 365.053 303.814C372.314 301.832 379.626 299.422 387.153 298.573C395.116 297.675 403.046 297.874 411.039 297.392C418.039 296.97 426.684 296.634 432.712 292.816C448.278 282.955 465.988 276.29 484.291 272.665C496.732 270.2 509.377 268.425 521.694 265.431C523.272 265.047 523.908 264.711 523.908 266.317" stroke="#787878" stroke-width="10" stroke-linecap="round"/>
<path d="M13.1724 136.334C22.2624 159.045 26.2182 183.539 32.9042 206.883C43.6363 244.354 57.2322 281.197 70.4521 317.971C78.8068 341.212 87.8984 364.162 98.0383 386.765C100.808 392.94 106.276 397.853 106.276 404.841" stroke="black" stroke-width="15" stroke-linecap="round"/>
<path d="M104.552 408C109.601 404.531 117.289 403.557 123.134 401.507C137.611 396.428 151.999 390.948 166.621 386.239C197.563 376.273 230.045 368.09 262.406 363.073C291.038 358.635 318.76 353.155 346.602 345.787C365.108 340.889 384.733 341.892 403.594 339.733C434.414 336.203 465.365 331.451 495.835 325.868C509.814 323.307 525.556 320.507 539.035 316.392" stroke="black" stroke-width="15" stroke-linecap="round"/>
<path d="M528.689 319.551C535.308 314.161 542.067 310.455 548.613 304.458C559.334 294.636 568.006 283.534 578.689 273.746C586.902 266.223 597.842 253.128 608 248.475" stroke="black" stroke-width="15" stroke-linecap="round"/>
<path d="M608 243.737C608 223.339 599.699 200.827 594.207 181.261C591.96 173.258 587.804 161.856 587.31 153.708C586.117 134.03 575.418 112.157 567.578 93.6889C561.212 78.6918 554.851 63.5065 547.655 48.6745C541.42 35.8233 537.23 21.7142 528.689 9.97789" stroke="black" stroke-width="15" stroke-linecap="round"/>
<path d="M8 133.175C11.5673 128.273 17.6563 126.727 23.613 125.19C44.5321 119.792 65.6127 114.876 86.5441 109.483C156.421 91.4797 225.997 74.8109 296.697 59.8184C338.837 50.8824 378.805 34.4342 421.793 28.5803C441.589 25.8847 462.553 21.8246 481.18 15.6815C491.481 12.2843 505.996 8.39844 516.621 8.39844" stroke="black" stroke-width="15" stroke-linecap="round"/>
<path d="M518.193 8C520.154 8.29438 522.137 8.47084 524.11 8.68248C525.077 8.7862 526.108 8.86075 527.055 9.0776" stroke="black" stroke-width="15" stroke-linecap="round"/>
<path d="M541.449 315.061C543.221 311.962 546.658 309.482 547.872 306.147" stroke="black" stroke-width="15" stroke-linecap="round"/>
<path d="M526.06 316.617C526.06 310.557 526.245 304.472 525.706 298.427C524.626 286.341 522.688 273.146 524.579 261.016C525.826 253.022 527.53 245.008 529.213 237.078C529.72 234.69 530.384 226.113 532.753 224.873C533.365 224.552 535.089 224.796 535.714 224.814C541.582 224.982 547.448 226.745 552.963 228.411C562.491 231.287 572.522 232.591 581.926 235.692C586.091 237.066 590.709 238.242 594.284 240.733C597.316 242.847 601.263 243.45 604.26 245.509" stroke="black" stroke-width="15" stroke-linecap="round"/>
<path d="M154.533 180.197C154.532 180.868 154.346 181.459 153.976 181.969C153.641 182.423 153.2 182.829 152.653 183.184C152.106 183.54 151.521 183.832 150.898 184.061C150.312 184.233 149.767 184.373 149.262 184.48C149.033 184.529 148.804 184.578 148.575 184.626C148.382 184.62 148.17 184.64 147.941 184.689C147.712 184.738 147.622 184.877 147.67 185.106C147.719 185.335 147.639 185.52 147.429 185.661C147.18 185.618 146.936 185.598 146.697 185.6C146.458 185.603 146.224 185.629 145.995 185.678C145.674 185.746 145.358 185.837 145.047 185.951C144.781 186.056 144.511 186.137 144.236 186.196C143.869 186.273 143.584 186.286 143.381 186.233C143.224 186.171 143.067 186.108 142.91 186.046C142.789 185.928 142.645 185.815 142.478 185.707C142.357 185.588 142.173 185.508 141.924 185.465C141.574 185.396 141.294 185.431 141.084 185.572C140.92 185.702 140.593 185.628 140.102 185.349C139.454 185.008 138.855 184.56 138.306 184.006C137.793 183.396 137.275 182.763 136.752 182.108C136.229 181.452 135.683 180.801 135.114 180.155C134.545 179.51 133.927 178.97 133.26 178.537L132.709 178.654C131.884 178.829 131.384 179.295 131.21 180.051C130.951 179.962 130.688 179.85 130.419 179.716C130.141 179.535 129.85 179.405 129.546 179.326C128.559 179.871 127.518 180.38 126.42 180.853C125.323 181.326 124.201 181.684 123.055 181.928L122.092 182.133C121.817 182.191 121.509 182.209 121.168 182.185C120.749 182.466 120.385 182.783 120.077 183.136C119.759 183.443 119.371 183.646 118.912 183.743C118.637 183.802 118.296 183.778 117.891 183.673C117.615 183.731 117.502 183.875 117.551 184.104C117.646 184.324 117.533 184.468 117.212 184.536L116.593 184.667C115.951 184.804 115.314 184.963 114.682 185.145C114.095 185.318 113.481 185.472 112.839 185.609C111.968 185.794 111.05 185.869 110.084 185.835C109.884 186.021 109.646 186.144 109.371 186.202C109.207 186.333 109.104 186.523 109.061 186.771C109.008 186.974 108.956 187.177 108.903 187.38C108.841 187.537 108.732 187.704 108.578 187.88C108.46 188.001 108.259 188.068 107.974 188.081C108 188.65 107.863 189.135 107.565 189.534C107.266 189.932 107.185 190.453 107.322 191.095C106.876 191.477 106.537 191.909 106.304 192.389C106.07 192.87 105.842 193.374 105.619 193.901C105.396 194.427 105.145 194.936 104.866 195.427C104.633 195.907 104.288 196.316 103.833 196.652C103.662 196.976 103.686 197.426 103.905 198.003C103.488 198.523 102.947 199.021 102.282 199.498C101.617 199.975 100.963 200.282 100.321 200.418C98.9915 200.701 97.9232 200.185 97.1161 198.871C97.0185 198.412 96.9618 197.921 96.9462 197.397C96.8748 196.838 96.8591 196.314 96.8991 195.826C96.9292 195.292 97.0428 194.813 97.2398 194.388C97.427 193.917 97.7533 193.536 98.2186 193.245C98.1307 192.833 97.9346 192.587 97.6302 192.508C97.3161 192.383 97.138 192.109 97.0959 191.687C98.207 190.828 99.1185 189.819 99.8305 188.662C100.542 187.504 101.153 186.32 101.662 185.109C102.207 183.843 102.752 182.577 103.297 181.311C103.843 180.045 104.504 178.874 105.281 177.799L104.974 176.355C106.037 174.595 106.579 172.755 106.602 170.833C107.086 170.634 107.358 170.337 107.418 169.941C107.523 169.535 107.522 169.08 107.415 168.575C107.644 168.527 107.762 168.406 107.769 168.213C107.812 167.964 108.003 167.851 108.344 167.875C108.522 166.687 108.766 165.581 109.075 164.556C109.384 163.532 109.693 162.508 110.002 161.484C110.302 160.414 110.527 159.336 110.679 158.249C110.877 157.153 110.936 155.966 110.856 154.689C111.488 154.507 111.768 154.136 111.697 153.576C111.662 152.961 111.641 152.414 111.635 151.936C112.186 151.148 112.53 150.284 112.665 149.345C112.846 148.396 112.977 147.434 113.057 146.458C113.127 145.437 113.225 144.434 113.35 143.449C113.512 142.408 113.836 141.452 114.322 140.582L114.278 140.376C114.229 140.147 114.108 140.029 113.915 140.022C113.712 139.969 113.586 139.828 113.537 139.599C113.573 139.543 113.586 139.493 113.577 139.447C114.078 139.101 114.413 138.646 114.58 138.083C114.738 137.475 115.068 136.997 115.569 136.651C116.698 137.226 117.649 137.527 118.422 137.554C119.184 137.536 120.172 137.446 121.383 137.284C122.116 137.799 122.603 138.511 122.844 139.418C123.121 140.269 123.467 141.106 123.882 141.929C124.561 143.318 125.259 144.679 125.974 146.013C126.725 147.291 127.372 148.639 127.914 150.057C128.237 150.899 128.665 151.671 129.197 152.372C129.73 153.074 130.153 153.822 130.466 154.618C130.695 155.241 130.851 155.974 130.935 156.819C131.009 157.618 131.247 158.286 131.65 158.824L132.365 159.822C132.702 160.277 132.998 160.765 133.252 161.286C133.553 161.798 133.831 162.314 134.085 162.835C134.745 164.132 135.383 165.554 136 167.1C136.653 168.591 137.437 169.909 138.352 171.057C138.679 171.467 139.091 171.714 139.589 171.8C140.132 171.876 140.712 171.897 141.327 171.862C141.933 171.781 142.511 171.682 143.061 171.565C143.648 171.393 144.147 171.263 144.56 171.175L145.248 171.029C145.523 170.97 145.808 170.958 146.102 170.991C146.364 171.319 146.524 171.62 146.582 171.895C146.7 172.445 146.609 172.92 146.31 173.319C146.012 173.718 145.907 174.123 145.995 174.536C146.043 174.765 146.189 174.998 146.431 175.234C146.238 175.227 145.958 175.263 145.591 175.341C144.536 175.565 143.544 175.968 142.613 176.549C143.146 177.25 143.769 177.813 144.482 178.236C145.231 178.604 145.999 178.944 146.784 179.256C147.164 178.792 147.607 178.506 148.111 178.399C148.661 178.282 149.195 178.313 149.712 178.49C150.265 178.612 150.817 178.615 151.367 178.498C151.78 178.41 152.063 178.278 152.217 178.101C152.672 178.436 153.063 178.808 153.39 179.218C153.707 179.582 154.088 179.908 154.533 180.197ZM130.663 173.769C130.405 173.01 130.127 172.494 129.83 172.221C129.568 171.894 129.315 171.492 129.07 171.017C128.75 170.414 128.466 169.756 128.218 169.042C128.016 168.318 127.773 167.627 127.489 166.968C126.836 165.478 126.137 163.997 125.393 162.526C124.694 161.045 123.89 159.634 122.982 158.294C123.107 157.98 123.145 157.708 123.096 157.479L123.052 157.273C122.542 156.902 122.126 156.415 121.806 155.812C121.477 155.163 121.152 154.538 120.831 153.935C120.547 153.276 120.209 152.701 119.817 152.21C119.461 151.662 118.969 151.264 118.34 151.014C118.261 151.318 118.261 151.654 118.339 152.021C118.407 152.341 118.494 152.635 118.598 152.9C118.748 153.156 118.858 153.444 118.926 153.765C118.516 154.091 118.251 154.531 118.129 155.084C118.043 155.582 117.8 156.017 117.4 156.389C117.346 157.934 117.116 159.445 116.712 160.921C116.297 162.35 115.837 163.79 115.331 165.239C114.871 166.679 114.438 168.137 114.034 169.613C113.619 171.042 113.357 172.512 113.247 174.021C112.739 174.56 112.439 175.175 112.346 175.866C112.299 176.547 112.344 177.208 112.481 177.85C112.942 177.991 113.43 178.031 113.944 177.97C114.495 177.853 115.022 177.741 115.526 177.634C116.031 177.527 116.522 177.47 117 177.464C117.478 177.459 117.939 177.6 118.384 177.889C118.941 177.579 119.559 177.328 120.237 177.136C120.951 176.888 121.503 176.555 121.893 176.137C122.878 176.263 123.898 176.214 124.953 175.989C125.503 175.873 126.021 175.715 126.506 175.516C127.036 175.307 127.539 175.08 128.014 174.836C128.446 174.84 128.802 174.932 129.08 175.112C129.348 175.247 129.706 175.243 130.155 175.099C130.345 174.867 130.444 174.655 130.451 174.462C130.448 174.223 130.518 173.992 130.663 173.769ZM196.309 125.887C196.397 126.3 196.388 126.709 196.283 127.115L196.021 128.248C195.952 128.599 195.888 128.972 195.828 129.368C195.769 129.764 195.816 130.209 195.969 130.704C195.483 131.574 194.993 132.421 194.497 133.245C194.002 134.069 193.594 134.97 193.276 135.948C192.761 136.01 192.396 136.207 192.18 136.541C192.009 136.865 191.904 137.27 191.864 137.758C190.969 138.284 190.228 138.968 189.641 139.812C189.044 140.61 188.554 141.457 188.169 142.353C185.954 143.878 183.948 145.599 182.151 147.514C180.355 149.429 178.795 151.558 177.473 153.9C178.298 153.724 179.12 153.646 179.938 153.663C180.803 153.671 181.649 153.707 182.477 153.771C183.342 153.778 184.183 153.791 185.002 153.809C185.81 153.781 186.618 153.633 187.423 153.366C188.137 153.79 188.899 154.107 189.711 154.318C190.568 154.519 191.398 154.702 192.2 154.867C193.048 155.022 193.86 155.233 194.635 155.499C195.457 155.756 196.206 156.124 196.883 156.603C196.903 156.695 196.899 156.791 196.873 156.893C196.883 156.938 196.897 157.007 196.917 157.099C196.995 157.466 197.165 157.813 197.426 158.141C197.678 158.423 197.843 158.747 197.921 159.114C197.77 159.529 197.647 159.963 197.551 160.415C197.456 160.866 197.304 161.282 197.098 161.661C196.937 162.031 196.72 162.364 196.448 162.662C196.176 162.959 195.77 163.189 195.229 163.352C195.166 164.18 194.931 164.877 194.524 165.443C194.108 165.963 193.618 166.474 193.054 166.977C192.526 167.425 192.003 167.896 191.485 168.389C190.958 168.837 190.546 169.379 190.251 170.017C188.943 170.631 187.688 171.377 186.486 172.255C185.319 173.078 184.344 174.124 183.559 175.393C182.891 175.631 182.205 175.897 181.501 176.19C180.832 176.428 180.154 176.62 179.467 176.766C178.504 176.971 177.685 176.953 177.011 176.713C176.327 176.427 175.827 175.767 175.511 174.732C175.58 174.382 175.728 174.063 175.954 173.775L176.702 172.897C176.974 172.6 177.2 172.312 177.381 172.034C177.597 171.7 177.735 171.336 177.794 170.94C177.886 170.92 178.006 170.919 178.153 170.935C178.291 170.906 178.428 170.877 178.566 170.848C179.116 170.731 179.527 170.523 179.799 170.226C180.071 169.929 180.321 169.636 180.547 169.348C180.819 169.051 181.119 168.771 181.447 168.51C181.774 168.249 182.241 168.078 182.847 167.997C183.041 167.333 183.43 166.795 184.013 166.383C184.587 165.926 185.193 165.509 185.832 165.134C186.461 164.713 187.039 164.278 187.567 163.831C188.131 163.327 188.454 162.708 188.537 161.971C188.23 161.653 187.873 161.441 187.467 161.336C187.052 161.185 186.6 161.089 186.112 161.049L184.717 160.914C184.276 160.864 183.875 160.782 183.515 160.667C183.039 160.911 182.573 161.082 182.114 161.18C181.151 161.384 180.192 161.493 179.236 161.504C178.28 161.516 177.32 161.624 176.357 161.828C175.486 162.014 174.754 162.289 174.161 162.655C173.922 162.658 173.655 162.642 173.361 162.609C173.112 162.566 172.863 162.523 172.614 162.48C171.648 163.117 170.591 163.557 169.445 163.801L164.974 164.751C164.608 164.829 164.25 164.953 163.903 165.123C163.594 166.147 163.552 167.186 163.776 168.24C163.942 169.02 164.218 169.752 164.604 170.437C164.979 171.076 165.365 171.761 165.76 172.491C166.853 173.122 167.911 173.927 168.934 174.908C169.948 175.842 170.597 176.974 170.88 178.304C170.948 178.625 170.979 178.882 170.972 179.075C170.445 178.851 169.815 178.818 169.081 178.974C168.44 179.11 167.84 179.333 167.283 179.643C166.772 179.944 166.205 180.208 165.583 180.436C165.03 180.314 164.453 180.197 163.854 180.085C163.246 179.927 162.65 179.718 162.068 179.458C161.535 178.757 161.012 178.101 160.499 177.491C159.975 176.836 159.371 176.246 158.684 175.721L158.625 175.446C158.283 173.841 157.809 172.288 157.202 170.788C156.641 169.278 156.189 167.721 155.848 166.116C155.691 165.382 155.558 164.644 155.448 163.901C155.373 163.102 155.451 162.342 155.681 161.623C155.31 160.552 154.997 159.42 154.743 158.228C154.235 155.844 153.865 153.431 153.632 150.988C153.4 148.546 153.02 146.087 152.493 143.611C152.385 143.106 152.255 142.607 152.102 142.112C151.994 141.608 151.864 141.109 151.711 140.614L151.436 140.673C150.84 140.799 150.286 141.013 149.775 141.313C149.254 141.568 148.738 141.845 148.227 142.145C147.716 142.446 147.182 142.751 146.625 143.061C146.058 143.325 145.476 143.521 144.88 143.647C144.553 143.909 144.294 144.156 144.103 144.388C143.913 144.62 143.718 144.829 143.518 145.015C143.318 145.201 143.09 145.37 142.835 145.52C142.533 145.68 142.171 145.781 141.749 145.823C141.313 146.251 140.977 146.586 140.741 146.828C140.449 147.033 140.048 147.286 139.537 147.587C139.281 147.737 139.081 147.923 138.937 148.146L138.489 148.744C138.335 148.92 138.158 149.102 137.958 149.288C137.758 149.474 137.475 149.606 137.108 149.684C136.787 149.753 136.553 149.778 136.405 149.762C136.082 149.591 135.794 149.365 135.542 149.083C135.244 148.811 134.975 148.556 134.733 148.32C134.435 148.048 134.147 147.822 133.869 147.641C133.535 147.425 133.17 147.287 132.774 147.227C132.909 146.959 132.962 146.756 132.932 146.618C132.847 146.445 132.781 146.243 132.732 146.014C132.702 145.876 132.706 145.78 132.742 145.724C132.795 144.85 133.071 144.121 133.57 143.536C134.059 142.905 134.64 142.374 135.315 141.943C135.981 141.466 136.679 141.03 137.409 140.635C138.094 140.25 138.723 139.828 139.297 139.371C141.095 139.037 142.688 138.53 144.077 137.852C145.457 137.127 146.848 136.233 148.25 135.168C148.555 135.247 148.845 135.257 149.12 135.199C149.349 135.15 149.573 135.078 149.793 134.984L150.451 134.7C150.904 134.124 151.436 133.7 152.049 133.426C152.662 133.152 153.279 132.901 153.902 132.673C154.524 132.444 155.123 132.221 155.7 132.003C156.267 131.739 156.74 131.374 157.121 130.91L157.396 130.852C158.496 130.618 159.558 130.2 160.58 129.6C161.648 128.989 162.719 128.618 163.793 128.485C164.603 127.786 165.383 127.285 166.133 126.982C166.883 126.679 167.763 126.42 168.771 126.205C169.001 126.157 169.256 126.006 169.538 125.755C169.81 125.457 170.176 125.26 170.634 125.162C170.726 125.143 170.799 125.151 170.855 125.187C170.947 125.168 171.038 125.148 171.13 125.129C171.543 125.041 171.789 124.845 171.868 124.541C171.992 124.227 172.399 123.997 173.086 123.85C173.407 123.782 173.71 123.742 173.995 123.729C174.27 123.671 174.545 123.612 174.82 123.554C175.141 123.486 175.323 123.327 175.366 123.078C175.399 122.784 175.581 122.625 175.912 122.603C176.089 122.757 176.337 122.8 176.658 122.732C176.97 122.618 177.217 122.541 177.4 122.502C177.721 122.434 177.924 122.487 178.009 122.66C178.645 122.046 179.384 121.577 180.226 121.255C181.113 120.922 181.97 120.668 182.795 120.493C183.116 120.425 183.442 120.379 183.773 120.357C184.094 120.289 184.443 120.239 184.819 120.206C185.173 119.844 185.625 119.604 186.176 119.487C186.497 119.419 187.03 119.449 187.776 119.578C188.569 119.697 189.394 119.857 190.251 120.058C191.109 120.259 191.902 120.498 192.632 120.774C193.362 121.05 193.825 121.311 194.021 121.557C194.132 121.629 194.222 121.826 194.29 122.147C194.405 122.458 194.532 122.718 194.672 122.928C195.019 123.43 195.337 123.913 195.628 124.378C195.955 124.788 196.182 125.291 196.309 125.887ZM188.836 128.266C188.816 128.174 188.774 128.088 188.709 128.006C188.679 127.868 188.655 127.754 188.635 127.662C188.348 127.436 187.983 127.297 187.541 127.248C187.145 127.188 186.708 127.161 186.229 127.167C185.797 127.163 185.347 127.187 184.879 127.238C184.447 127.234 184.055 127.198 183.705 127.128C182.811 127.654 181.79 128.039 180.644 128.282C179.589 128.506 178.615 128.546 177.722 128.4C177.397 128.901 176.938 129.334 176.345 129.699C175.752 130.065 175.103 130.394 174.399 130.688C173.73 130.926 173.034 131.146 172.311 131.347C171.623 131.494 171.004 131.625 170.454 131.742C170.27 131.781 169.979 131.987 169.579 132.359C169.179 132.732 168.795 132.957 168.429 133.035C168.153 133.094 167.877 133.033 167.599 132.852C167.254 133.261 166.74 133.658 166.055 134.043C165.37 134.428 164.658 134.795 163.917 135.144C163.167 135.447 162.399 135.778 161.613 136.137C160.872 136.486 160.246 136.811 159.735 137.111C159.439 138.42 159.419 139.79 159.676 141.221C159.923 142.606 160.188 143.964 160.471 145.293C160.637 146.073 160.753 146.839 160.817 147.592C160.882 148.345 160.997 149.111 161.163 149.891C161.241 150.258 161.347 150.642 161.48 151.045C161.604 151.402 161.82 151.74 162.127 152.058C161.819 152.411 161.645 152.831 161.605 153.319C161.601 153.751 161.643 154.173 161.731 154.586C161.839 155.09 161.982 155.539 162.162 155.932C162.341 156.325 162.516 156.696 162.686 157.043C164.124 156.593 165.395 156.036 166.499 155.37C167.649 154.694 168.688 153.946 169.616 153.126C170.589 152.296 171.497 151.384 172.34 150.39C173.183 149.396 174.062 148.347 174.977 147.242C175.416 147.053 175.753 146.837 175.989 146.596C176.271 146.344 176.641 146.169 177.1 146.072C177.146 145.391 177.398 144.882 177.853 144.546C178.299 144.164 178.606 143.691 178.773 143.128C179.294 142.874 179.714 142.593 180.032 142.286C180.386 141.923 180.722 141.588 181.04 141.281C181.348 140.928 181.684 140.593 182.048 140.276C182.458 139.949 182.933 139.704 183.473 139.542C184.057 138.459 184.664 137.372 185.294 136.279C185.97 135.177 186.823 134.229 187.852 133.435C187.938 132.938 188.061 132.504 188.222 132.135C188.373 131.719 188.506 131.331 188.621 130.971C188.772 130.556 188.878 130.15 188.937 129.754C188.987 129.312 188.953 128.816 188.836 128.266ZM242.584 125.108C242.396 125.579 242.333 126.072 242.395 126.586C242.457 127.1 242.531 127.563 242.619 127.976C242.736 128.526 242.853 129.076 242.971 129.627C243.124 130.121 243.254 130.621 243.362 131.125L243.581 132.156C243.558 132.497 243.489 132.847 243.374 133.207C243.259 133.567 243.189 133.917 243.166 134.257C242.885 136.09 242.926 137.855 243.287 139.551L243.316 139.689C243.204 140.288 243.082 140.841 242.951 141.348C242.865 141.845 242.779 142.343 242.693 142.84C242.598 143.292 242.558 143.78 242.573 144.303C242.579 144.781 242.674 145.336 242.856 145.968C242.556 147.71 242.02 149.357 241.249 150.911C240.468 152.419 239.719 153.967 239.003 155.557C238.118 156.129 237.327 156.8 236.629 157.571C235.976 158.333 235.361 159.159 234.784 160.048C233.46 160.809 232.174 161.633 230.925 162.522C229.677 163.41 228.609 164.476 227.724 165.718C226.872 165.995 226.03 166.318 225.198 166.686C224.366 167.055 223.576 167.51 222.829 168.052L222.004 168.228C221.591 168.316 221.274 168.287 221.051 168.143C220.524 168.59 219.953 168.951 219.341 169.225C218.718 169.453 218.086 169.636 217.444 169.772C216.619 169.947 215.784 170.077 214.939 170.161C214.13 170.189 213.299 170.222 212.444 170.26C211.849 169.715 211.104 169.37 210.211 169.225C209.307 169.034 208.501 168.846 207.79 168.661C206.07 167.11 204.731 165.55 203.774 163.98C202.807 162.364 201.773 160.547 200.672 158.529C200.627 157.868 200.656 157.215 200.758 156.57C200.851 155.879 200.796 155.172 200.594 154.448C200.912 151.889 201.53 149.505 202.45 147.297C203.406 145.033 204.564 142.822 205.926 140.664C205.867 140.389 205.864 140.15 205.917 139.947C206.015 139.734 205.98 139.454 205.81 139.107C205.865 139.143 205.962 139.146 206.1 139.117C206.466 139.039 206.676 138.899 206.729 138.696C206.772 138.447 206.741 138.19 206.636 137.925C208.063 136.519 209.294 134.988 210.331 133.33C211.413 131.662 212.728 130.184 214.275 128.897C214.325 128.455 214.481 128.063 214.743 127.719C215.006 127.376 215.19 127.001 215.295 126.596C216.674 125.871 217.872 124.97 218.888 123.891C219.905 122.812 221.009 121.811 222.202 120.886C222.848 120.318 223.477 119.897 224.09 119.623C224.739 119.293 225.433 118.954 226.174 118.605C226.429 118.454 226.667 118.332 226.886 118.237C227.106 118.143 227.353 118.066 227.628 118.008C228.453 117.832 229.29 117.822 230.138 117.978C230.976 118.087 231.808 118.054 232.633 117.879C232.862 117.83 233.046 117.791 233.183 117.762C233.357 117.677 233.53 117.592 233.704 117.507C234.689 118.304 235.831 118.828 237.13 119.079C237.552 119.708 237.999 120.236 238.474 120.663C238.994 121.079 239.514 121.496 240.034 121.912C240.544 122.283 241.023 122.732 241.471 123.26C241.955 123.732 242.326 124.348 242.584 125.108ZM236.467 130.146C236.419 129.917 236.352 129.716 236.267 129.542C235.779 129.502 235.304 129.411 234.843 129.27C234.382 129.128 233.899 129.111 233.394 129.218C233.073 129.286 232.767 129.423 232.475 129.629C232.361 129.318 232.175 129.118 231.916 129.029C231.704 128.931 231.45 128.865 231.155 128.831C230.897 128.743 230.625 128.705 230.34 128.717C230.091 128.674 229.856 128.58 229.633 128.436C229.418 128.099 229.179 127.766 228.917 127.438C228.692 127.055 228.354 126.815 227.902 126.719C227.577 127.22 227.169 127.666 226.677 128.058C226.176 128.404 225.651 128.755 225.104 129.111C224.603 129.457 224.111 129.849 223.629 130.287C223.193 130.715 222.841 131.198 222.572 131.734L221.334 131.997C221.166 132.56 220.859 133.033 220.413 133.415C219.958 133.751 219.595 134.188 219.326 134.724C218.671 135.247 218.081 135.852 217.556 136.538C217.067 137.169 216.588 137.846 216.119 138.569C215.64 139.246 215.166 139.945 214.697 140.668C214.274 141.381 213.795 142.058 213.26 142.699C212.938 144.109 212.512 145.374 211.984 146.492C211.491 147.556 211.026 148.637 210.59 149.736C210.198 150.825 209.896 151.992 209.681 153.236C209.503 154.424 209.59 155.843 209.941 157.493L210.087 158.181C210.136 158.41 210.208 158.635 210.303 158.854C211.035 159.369 211.663 159.955 212.186 160.61C212.755 161.256 213.532 161.642 214.518 161.768C215.513 161.94 216.51 161.896 217.509 161.636C218.554 161.366 219.587 161.266 220.608 161.336C222.721 160.456 224.689 159.343 226.511 157.997C228.369 156.596 230.074 155.035 231.625 153.316C231.851 153.028 232.123 152.731 232.441 152.423C232.749 152.07 232.989 151.732 233.159 151.408C233.34 151.13 233.469 150.839 233.548 150.535C233.673 150.221 233.803 149.929 233.938 149.661C234.177 148.987 234.463 148.304 234.795 147.61C235.126 146.917 235.491 146.264 235.888 145.653C235.902 144.595 235.995 143.569 236.167 142.574C236.328 141.533 236.495 140.516 236.667 139.521C236.838 138.526 236.936 137.523 236.96 136.511C237.03 135.49 236.953 134.452 236.728 133.397C236.68 133.168 236.603 132.921 236.499 132.656C236.44 132.381 236.363 132.133 236.269 131.914C236.528 131.331 236.594 130.742 236.467 130.146ZM296.283 143.669C296.247 144.396 296.071 145.033 295.755 145.579C295.44 146.125 295.047 146.64 294.575 147.124C294.149 147.598 293.672 148.058 293.144 148.506C292.606 148.908 292.102 149.351 291.629 149.834L290.735 150.024C288.81 150.434 287.222 150.292 285.972 149.599C284.758 148.851 283.73 147.847 282.887 146.589C282.034 145.285 281.299 143.859 280.682 142.313C280.111 140.757 279.501 139.353 278.851 138.102C278.398 138.677 278.057 139.325 277.827 140.045C277.587 140.719 277.324 141.398 277.038 142.081C276.799 142.755 276.48 143.398 276.083 144.01C275.732 144.611 275.186 145.087 274.446 145.436C274.377 145.786 274.285 146.141 274.169 146.501C274.1 146.851 274.082 147.214 274.114 147.591C273.222 148.356 272.442 149.192 271.773 150.101C271.104 151.01 270.44 151.942 269.78 152.897C269.121 153.852 268.434 154.789 267.719 155.707C267.04 156.57 266.222 157.343 265.265 158.026C265.21 157.99 265.113 157.986 264.976 158.016C264.425 158.133 263.95 158.377 263.55 158.75C263.141 159.077 262.661 159.298 262.11 159.415C261.744 159.493 261.385 159.498 261.035 159.428C260.731 159.349 260.398 159.252 260.038 159.137C259.724 159.012 259.397 158.938 259.056 158.914C258.716 158.891 258.367 158.941 258.01 159.065C257.376 158.337 256.596 157.712 255.67 157.19C254.78 156.613 254.146 155.885 253.767 155.007C253.588 154.614 253.431 154.216 253.297 153.813C253.2 153.354 253.056 152.906 252.867 152.467C252.583 151.808 252.253 151.159 251.877 150.52C251.492 149.836 251.152 149.141 250.858 148.437C250.824 147.15 250.765 145.749 250.682 144.233C250.543 142.681 250.455 141.142 250.418 139.617C250.417 138.036 250.527 136.527 250.748 135.09C251.005 133.598 251.444 132.282 252.064 131.144L251.893 130.677C251.737 129.944 251.728 129.227 251.866 128.526C252.005 127.826 252.171 127.144 252.365 126.48C252.559 125.815 252.707 125.161 252.809 124.516C252.912 123.871 252.816 123.197 252.522 122.493C253.014 122.101 253.538 121.75 254.095 121.439C254.652 121.129 255.252 120.906 255.894 120.77C256.49 120.643 257.059 120.618 257.603 120.694C257.589 121.08 257.799 121.275 258.231 121.279L258.275 121.486C258.48 122.448 258.565 123.413 258.531 124.378C258.497 125.344 258.417 126.319 258.292 127.304C258.156 128.244 258.026 129.206 257.9 130.191C257.81 131.121 257.794 132.059 257.852 133.005C257.679 133.09 257.56 133.211 257.498 133.368C257.482 133.515 257.465 133.662 257.448 133.809C257.432 133.957 257.387 134.086 257.315 134.197C257.243 134.308 257.115 134.383 256.932 134.422C256.999 136.086 257.042 137.754 257.063 139.426C257.12 141.044 257.319 142.655 257.661 144.259C257.866 145.222 258.167 146.188 258.566 147.158C258.964 148.128 259.513 149.017 260.212 149.827L260.473 149.7C260.977 149.593 261.391 149.624 261.715 149.795C262.085 149.956 262.547 150.098 263.1 150.22C263.447 150.05 263.766 149.862 264.058 149.657C264.34 149.405 264.414 149.078 264.28 148.675C264.867 148.502 265.342 148.258 265.706 147.941C266.06 147.578 266.363 147.202 266.616 146.813L267.442 145.631C267.741 145.232 268.127 144.91 268.603 144.665C268.544 144.39 268.569 144.169 268.677 144.002L269.002 143.502C269.11 143.335 269.172 143.178 269.189 143.031C269.242 142.828 269.211 142.571 269.097 142.26C269.637 142.097 270.021 141.872 270.247 141.584C270.519 141.287 270.74 140.976 270.911 140.652C271.118 140.273 271.302 139.898 271.463 139.529C271.623 139.159 271.863 138.82 272.181 138.513C272.355 137.757 272.596 136.748 272.902 135.485C273.254 134.212 273.573 132.898 273.86 131.543C274.192 130.179 274.448 128.902 274.626 127.714C274.84 126.471 274.884 125.551 274.757 124.955C274.708 124.726 274.596 124.534 274.419 124.38C274.288 124.216 274.221 124.014 274.218 123.775L274.175 123.569C274.444 123.033 274.657 122.46 274.815 121.851C275.019 121.233 275.228 120.638 275.441 120.065C275.701 119.483 275.993 118.941 276.317 118.441C276.642 117.941 277.101 117.508 277.694 117.142C278.477 117.215 279.245 117.22 279.998 117.156C280.797 117.082 281.569 117.109 282.316 117.238C282.606 118.375 283.003 119.68 283.509 121.154C284.015 122.628 284.609 123.843 285.292 124.8C285.419 125.396 285.518 125.974 285.589 126.534C285.706 127.084 285.824 127.634 285.941 128.185C286.136 129.101 286.359 130.036 286.61 130.99C286.907 131.933 287.258 132.793 287.663 133.569C287.488 134.325 287.484 135.093 287.65 135.872C287.874 136.927 288.25 137.901 288.776 138.796C289.292 139.644 289.731 140.581 290.093 141.607C290.865 142.305 291.732 142.552 292.695 142.348C292.924 142.299 293.103 142.237 293.231 142.162C293.404 142.077 293.573 141.969 293.737 141.839C294.192 142.173 294.6 142.518 294.963 142.872C295.362 143.17 295.802 143.436 296.283 143.669ZM350.725 97.5216C350.668 98.1566 350.488 98.7702 350.182 99.3622L349.321 101.055C349.052 101.591 348.838 102.164 348.68 102.772C348.558 103.326 348.616 103.936 348.854 104.604C348.763 104.624 348.648 104.648 348.511 104.677C348.363 104.661 348.244 104.662 348.152 104.682C347.418 104.838 346.884 105.143 346.55 105.597C346.251 105.996 345.806 106.379 345.213 106.744C345.062 106.489 344.894 106.261 344.708 106.061C344.511 105.815 344.266 105.676 343.971 105.642C342.92 106.105 341.858 106.523 340.787 106.894C339.706 107.22 338.635 107.591 337.574 108.009C337.089 108.207 336.614 108.452 336.149 108.743C335.674 108.987 335.176 109.237 334.655 109.492C334.399 109.642 334.111 109.751 333.79 109.819C333.459 109.842 333.138 109.91 332.827 110.024C331.736 110.304 330.564 110.649 329.309 111.059C328.045 111.424 326.972 112.011 326.09 112.822C325.612 112.827 325.116 112.861 324.602 112.922C324.088 112.984 323.579 113.068 323.074 113.175C321.974 113.409 320.783 113.782 319.502 114.294C318.258 114.75 317.194 115.383 316.312 116.194C316.064 116.151 315.797 116.136 315.512 116.148C315.273 116.151 314.993 116.187 314.672 116.255C314.58 116.274 314.516 116.312 314.48 116.368C314.435 116.377 314.366 116.392 314.274 116.411C314.316 116.834 314.45 117.237 314.675 117.62C314.937 117.948 315.298 118.183 315.76 118.324C315.684 118.867 315.709 119.437 315.836 120.033C316.002 120.812 316.214 121.582 316.472 122.342C316.775 123.092 317.01 123.857 317.176 124.636C317.361 125.507 317.393 126.219 317.271 126.773C318.023 128.05 318.564 129.469 318.896 131.028C319.013 131.578 319.085 132.138 319.11 132.707C319.172 133.221 319.266 133.776 319.393 134.372C319.5 134.877 319.772 135.25 320.207 135.493C320.632 135.69 320.899 136.041 321.006 136.546C321.045 136.729 321.038 136.922 320.986 137.125C321.598 136.851 322.178 136.536 322.725 136.18C323.263 135.778 323.852 135.509 324.494 135.373C324.861 135.295 325.22 135.29 325.57 135.36C325.966 135.419 326.326 135.535 326.65 135.705C326.653 135.944 326.661 136.206 326.674 136.491C326.732 136.766 326.791 137.041 326.849 137.316C326.957 137.821 327.059 138.302 327.157 138.76C327.291 139.163 327.434 139.612 327.587 140.107C327.357 140.826 327.044 141.492 326.647 142.104C326.296 142.705 326.111 143.415 326.094 144.234C325.406 144.38 324.821 144.672 324.339 145.11C323.894 145.492 323.481 145.915 323.1 146.38C322.71 146.798 322.32 147.216 321.93 147.635C321.53 148.007 321.055 148.252 320.504 148.369C319.817 148.515 319.316 148.526 319.002 148.401C318.678 148.23 318.423 148.045 318.236 147.845C318.05 147.645 317.868 147.468 317.692 147.314C317.561 147.15 317.317 147.13 316.96 147.254C316.741 146.677 316.441 146.166 316.058 145.72C315.666 145.228 315.256 144.764 314.827 144.328C314.445 143.882 314.039 143.442 313.611 143.005C313.219 142.514 312.895 142.007 312.641 141.486C312.112 140.353 311.733 139.139 311.506 137.846C311.278 136.553 310.808 135.359 310.096 134.264C310.051 133.603 309.983 132.946 309.892 132.295C309.792 131.597 309.673 130.927 309.536 130.286C309.263 129.002 308.949 127.751 308.593 126.532C308.274 125.258 307.95 123.962 307.621 122.642C307.212 122.297 306.908 121.883 306.709 121.398C306.546 120.857 306.388 120.34 306.235 119.845C306.068 119.737 305.878 119.634 305.666 119.535C305.499 119.427 305.368 119.263 305.273 119.043C304.887 119.03 304.602 119.042 304.419 119.081C303.777 119.218 303.261 119.495 302.871 119.914C302.517 120.276 302.156 120.497 301.789 120.575C301.422 120.653 301.069 120.68 300.728 120.656C300.388 120.633 300.057 120.655 299.736 120.724C299.461 120.782 299.315 120.885 299.299 121.032C299.318 121.124 299.246 121.235 299.082 121.366C298.964 121.487 298.663 121.647 298.178 121.846C297.693 122.044 297.139 122.258 296.517 122.486C295.931 122.659 295.344 122.831 294.758 123.004C294.218 123.167 293.856 123.267 293.672 123.306C292.939 123.462 292.359 123.442 291.934 123.245C291.453 123.011 290.898 122.77 290.27 122.52C290.303 122.225 290.31 122.032 290.29 121.941C290.193 121.482 289.977 121.145 289.643 120.928C289.3 120.666 289.104 120.42 289.055 120.19C288.948 119.686 289.071 119.253 289.425 118.89C289.733 118.537 289.847 118.057 289.766 117.452C290.723 116.769 291.727 116.196 292.779 115.733C293.83 115.27 294.914 114.848 296.031 114.466C297.148 114.085 298.238 113.686 299.299 113.269C300.406 112.842 301.466 112.305 302.479 111.658C302.809 111.636 303.117 111.619 303.402 111.606C303.723 111.538 304.044 111.47 304.365 111.401C305.74 111.109 307.064 110.684 308.335 110.126C309.642 109.513 311.006 109.055 312.427 108.753C312.794 108.675 313.166 108.62 313.543 108.588C313.919 108.556 314.301 108.547 314.687 108.56C316.462 107.895 318.21 107.212 319.93 106.511C321.696 105.801 323.517 105.126 325.394 104.487C326.291 104.201 327.171 103.942 328.032 103.711C328.93 103.424 329.822 103.115 330.71 102.782C331.021 102.668 331.236 102.551 331.354 102.43C331.508 102.253 331.546 101.982 331.468 101.615C331.919 101.711 332.397 101.705 332.902 101.598C333.681 101.432 334.408 101.134 335.084 100.703C335.759 100.272 336.486 99.9732 337.265 99.8075C337.449 99.7685 337.614 99.7574 337.761 99.774C337.899 99.7447 338.036 99.7155 338.174 99.6863C338.495 99.618 338.626 99.4464 338.568 99.1713C338.545 98.8406 338.73 98.5856 339.124 98.4062C339.425 98.2463 339.869 98.08 340.455 97.9075C341.041 97.7349 341.651 97.5575 342.283 97.3752C342.951 97.1374 343.55 96.9141 344.081 96.7055C344.648 96.4412 345.044 96.1652 345.271 95.8775L345.591 95.0187C346.426 94.8891 347.1 95.1292 347.614 95.739C348.163 96.2931 348.543 96.955 348.755 97.7247C348.978 97.8691 349.249 97.9072 349.57 97.8389C349.927 97.7151 350.244 97.624 350.519 97.5655L350.725 97.5216ZM443.716 114.919C443.643 115.702 443.731 116.45 443.979 117.164C443.88 117.377 443.744 117.525 443.57 117.61C443.397 117.695 443.228 117.803 443.064 117.933C442.89 118.018 442.749 118.144 442.641 118.311C442.569 118.422 442.613 118.628 442.773 118.93C441.279 119.343 439.903 119.971 438.645 120.813C437.387 121.656 436.161 122.54 434.968 123.464C434.232 123.381 433.577 123.233 433.004 123.019C432.431 122.805 431.746 122.735 430.947 122.809C429.835 121.416 428.755 119.945 427.706 118.394C426.693 116.789 426.001 115.115 425.63 113.372C425.357 112.089 425.337 110.871 425.571 109.719C425.278 108.344 425.105 106.967 425.051 105.588C424.997 104.21 424.971 102.85 424.973 101.508C425.01 100.11 425.002 98.7219 424.949 97.3436C424.895 95.9653 424.721 94.5885 424.428 93.2131L424.106 91.7001C424.014 91.7196 423.924 91.8586 423.836 92.1171C423.737 92.3297 423.648 92.5882 423.569 92.8925C423.526 93.1412 423.484 93.3899 423.441 93.6387C423.398 93.8874 423.358 94.0396 423.322 94.0951C422.67 94.8568 422.212 95.7449 421.949 96.7593C421.721 97.7181 421.439 98.6408 421.1 99.5274C420.663 100.627 420.176 101.713 419.637 102.786C419.145 103.849 418.425 104.744 417.478 105.473L417.507 105.61C417.556 105.84 417.521 106.015 417.403 106.136C417.285 106.257 417.311 106.491 417.481 106.838C416.413 107.448 415.448 108.205 414.585 109.107C413.769 109.999 413.152 111.041 412.735 112.232C411.867 112.656 411.064 113.162 410.326 113.75C409.625 114.283 408.91 114.866 408.183 115.5C407.855 115.761 407.514 116.073 407.16 116.436C406.806 116.799 406.432 117.07 406.039 117.249C405.702 117.465 405.217 117.664 404.585 117.846C403.998 118.018 403.366 118.201 402.688 118.393C402.056 118.575 401.419 118.734 400.777 118.871L399.264 119.192C399.035 119.241 398.712 119.19 398.297 119.039C397.881 118.887 397.415 118.723 396.898 118.545C396.426 118.358 395.937 118.198 395.43 118.067C394.913 117.889 394.438 117.798 394.006 117.794C393.385 116.68 392.634 115.738 391.75 114.967C390.904 114.141 390.011 113.324 389.072 112.517C388.609 111.466 388.043 110.388 387.377 109.283C386.756 108.169 385.882 107.325 384.753 106.75C384.914 106.38 384.95 105.989 384.862 105.577C384.755 105.072 384.538 104.615 384.211 104.206C383.884 103.796 383.662 103.316 383.545 102.766C383.467 102.399 383.431 102.119 383.438 101.926C383.051 102.583 382.835 103.372 382.791 104.292C382.784 105.156 382.853 105.932 383 106.62C383.117 107.17 383.293 107.659 383.528 108.089C383.206 108.828 383.079 109.694 383.147 110.686C383.26 111.668 383.395 112.526 383.551 113.259C383.746 114.176 384.005 115.056 384.328 115.898C383.751 116.787 383.575 117.759 383.799 118.814C383.926 119.41 384.176 119.908 384.549 120.308C384.588 120.491 384.571 120.638 384.499 120.749C384.427 120.861 384.327 120.954 384.199 121.029C384.117 121.094 384.017 121.187 383.899 121.308C383.817 121.374 383.796 121.498 383.835 121.681C383.884 121.911 383.937 122.163 383.996 122.438C384.1 122.703 384.182 122.973 384.24 123.248C384.377 123.89 384.496 124.56 384.596 125.257C384.697 125.955 384.816 126.624 384.952 127.266C385.235 128.596 385.555 129.534 385.911 130.082C386.303 130.573 386.712 130.918 387.138 131.115C387.609 131.302 388.103 131.485 388.62 131.662C389.137 131.84 389.708 132.27 390.332 132.952C390.283 133.393 390.104 133.791 389.796 134.144C389.523 134.441 389.256 134.762 388.994 135.105C388.768 135.393 388.574 135.722 388.413 136.091C388.252 136.461 388.258 136.939 388.431 137.525L388.087 137.598C387.491 137.725 386.937 137.938 386.426 138.239C385.915 138.539 385.361 138.753 384.765 138.879C384.628 138.909 384.485 138.915 384.338 138.898C384.2 138.927 384.063 138.957 383.925 138.986L383.15 138.719C382.891 138.631 382.647 138.611 382.418 138.659C382.189 138.708 381.901 138.817 381.553 138.987C380.472 137.06 379.514 135.036 378.678 132.913C377.889 130.78 377.269 128.66 376.82 126.551C376.771 126.322 376.768 126.083 376.811 125.834C376.89 125.53 377.054 125.399 377.303 125.442L377.025 124.135C376.722 122.714 376.544 121.314 376.49 119.936C376.472 118.502 376.307 117.052 375.994 115.584C375.907 115.172 375.796 114.764 375.662 114.361C375.574 113.949 375.468 113.564 375.344 113.207C375.408 112.379 375.471 111.55 375.534 110.722C375.634 109.839 375.59 108.961 375.405 108.09C375.327 107.723 375.165 107.302 374.92 106.827C375.229 106.474 375.43 106.072 375.526 105.62C375.612 105.123 375.647 104.612 375.631 104.088C375.606 103.519 375.562 102.977 375.501 102.463C375.439 101.949 375.387 101.481 375.345 101.058C375.609 100.044 375.651 99.0045 375.472 97.9403C375.293 96.876 375.313 95.8416 375.53 94.8369C375.445 94.6633 375.354 94.3473 375.256 93.8888C375.061 92.9718 375.003 92.0257 375.083 91.0503C375.199 90.0192 375.662 89.1541 376.471 88.4549C377.365 88.6004 378.362 88.5562 379.463 88.3223C380.517 88.0981 381.492 87.7233 382.386 87.1977C382.681 87.2309 382.957 87.2919 383.216 87.3807C383.465 87.4237 383.718 87.4896 383.977 87.5784C384.272 87.6116 384.566 87.6448 384.861 87.678C385.146 87.6654 385.467 87.5972 385.824 87.4734C386.565 88.7055 387.243 89.9751 387.857 91.2823C388.517 92.5798 389.09 93.9196 389.576 95.3019C389.794 95.8784 389.954 96.5154 390.054 97.2128C390.201 97.9005 390.383 98.5327 390.602 99.1092C390.726 99.4662 390.914 99.7857 391.166 100.068C391.408 100.304 391.659 100.586 391.921 100.913C392.182 101.241 392.408 101.625 392.597 102.064C392.832 102.493 393 103.056 393.101 103.754C393.859 104.838 394.653 105.868 395.484 106.841C396.35 107.759 397.262 108.668 398.221 109.566C398.663 109.616 399.068 109.721 399.438 109.882C399.798 109.998 400.073 110.275 400.262 110.714C400.675 110.626 401.056 110.617 401.407 110.686L402.649 110.781C404.274 109.861 405.723 108.786 406.995 107.557C408.312 106.319 409.728 105.203 411.242 104.211C412.84 101.81 414.118 99.2622 415.078 96.5663C416.028 93.8246 416.982 91.1058 417.942 88.4098L417.62 86.8969C417.866 86.7009 418.061 86.4917 418.205 86.2693C418.385 85.9913 418.626 85.7724 418.928 85.6125C418.856 85.0526 418.859 84.501 418.935 83.9577C419.047 83.3588 419.169 82.8057 419.3 82.2985C419.468 81.7358 419.595 81.2056 419.681 80.7082C419.757 80.1649 419.736 79.6181 419.619 79.068C419.551 78.7471 419.469 78.4768 419.374 78.2574C419.916 77.4235 420.668 76.9042 421.631 76.6995C422.548 76.5046 423.513 76.5389 424.528 76.8025C425.579 77.0104 426.556 77.2101 427.459 77.4014C428.198 78.3946 428.814 79.4857 429.307 80.6748C429.836 81.8084 430.283 83.0073 430.648 84.2715C431.013 85.5357 431.332 86.8097 431.605 88.0934L432.645 92.9761C432.677 93.3526 432.598 93.6569 432.408 93.889C432.254 94.0656 432.165 94.324 432.142 94.6645L432.288 95.3522C432.337 95.5814 432.363 95.8155 432.366 96.0545C432.571 97.0173 432.671 98.0503 432.667 99.1535C432.721 100.532 432.711 101.948 432.637 103.401C432.599 104.799 432.726 106.185 433.019 107.561C433.127 108.065 433.257 108.565 433.41 109.059C433.563 109.554 433.763 110.038 434.007 110.514C433.866 110.975 433.864 111.527 434 112.168C434.157 112.902 434.418 113.565 434.784 114.158C435.186 114.696 435.634 115.224 436.127 115.742C436.769 115.605 437.406 115.446 438.038 115.264C438.671 115.081 439.33 114.917 440.018 114.771C440.66 114.635 441.271 114.577 441.85 114.597C442.42 114.572 443.042 114.679 443.716 114.919ZM482.052 70.1104L482.111 70.3855C481.809 70.5454 481.698 70.8087 481.776 71.1755C481.32 71.5119 480.832 71.8074 480.311 72.0619C479.78 72.2705 479.287 72.5431 478.832 72.8795C478.318 72.9409 477.785 73.03 477.235 73.147C476.721 73.2083 476.212 73.2926 475.707 73.3998C474.332 73.6922 472.966 74.0304 471.61 74.4145C470.254 74.7986 468.879 75.0909 467.484 75.2916C466.92 75.7948 466.273 76.2439 465.542 76.6388C464.847 76.9781 464.156 77.2209 463.468 77.3671C462.918 77.484 462.422 77.5176 461.98 77.4678C460.997 78.2518 459.88 78.9686 458.628 79.618C457.422 80.2576 456.194 80.9022 454.942 81.5516C453.681 82.1551 452.48 82.8177 451.34 83.5393C450.235 84.2053 449.308 85.0255 448.557 85.9998C448.602 86.6612 448.67 87.3176 448.76 87.9693C448.841 88.575 448.945 89.1759 449.072 89.7719C449.209 90.4138 449.359 91.0049 449.522 91.5453C449.731 92.076 450.008 92.592 450.355 93.0935C450.604 93.1364 450.87 93.1516 451.155 93.139C451.486 93.1166 451.766 93.0811 451.995 93.0323C452.225 92.9836 452.449 92.9119 452.668 92.8174C452.878 92.6769 453.004 92.4824 453.047 92.2336C453.716 91.9958 454.398 91.8266 455.096 91.7263C455.784 91.5801 456.471 91.4339 457.159 91.2877C457.847 91.1416 458.507 90.9773 459.139 90.795C459.817 90.603 460.458 90.3471 461.06 90.0272C461.755 89.6879 462.441 89.4222 463.119 89.2302C463.843 89.0284 464.544 88.8315 465.222 88.6395C465.9 88.4474 466.596 88.2276 467.31 87.98C468.014 87.6865 468.717 87.2735 469.419 86.7411C470.063 86.8436 470.684 86.8315 471.28 86.7048C471.922 86.5684 472.551 86.4827 473.166 86.4477C473.536 86.6087 473.842 86.8072 474.084 87.0433C474.372 87.2697 474.555 87.5663 474.633 87.933C474.769 88.5749 474.677 89.2655 474.355 90.0048C474.033 90.7441 473.793 91.4181 473.635 92.0267L472.879 92.1875C471.778 92.4214 470.735 92.8109 469.749 93.356C468.799 93.8455 467.84 94.4086 466.874 95.0454C465.943 95.6266 464.985 96.1897 463.998 96.7348C463.048 97.2243 462.023 97.586 460.923 97.8199C460.739 97.8589 460.649 97.9979 460.652 98.2369C460.691 98.4202 460.674 98.5675 460.602 98.6787C460.363 98.6816 460.015 98.7318 459.556 98.8292C458.501 99.0534 457.517 99.3824 456.603 99.8163C455.689 100.25 454.728 100.574 453.719 100.789C453.444 100.847 453.169 100.906 452.894 100.964C452.609 100.977 452.324 100.989 452.039 101.002C451.888 101.418 451.644 101.733 451.306 101.949C450.959 102.118 450.654 102.375 450.392 102.718C450.342 103.16 450.358 103.684 450.439 104.289C450.566 104.885 450.674 105.509 450.765 106.161C450.892 106.757 450.968 107.34 450.994 107.909C451.019 108.479 450.929 108.954 450.722 109.333C450.817 109.552 451.019 109.605 451.331 109.491C451.632 109.331 451.822 109.435 451.9 109.801C451.988 110.214 452.035 110.659 452.041 111.137C452.047 111.615 452.098 112.083 452.196 112.542C452.382 113.413 452.678 114.356 453.086 115.372C453.53 116.332 454.051 117.203 454.65 117.987C455.294 118.76 456.046 119.367 456.906 119.807C457.757 120.202 458.733 120.282 459.833 120.048C460.567 119.892 461.225 119.608 461.809 119.197C462.392 118.785 462.822 118.215 463.097 117.485L463.427 117.343C463.61 117.304 463.775 117.293 463.923 117.31C464.116 117.316 464.304 117.3 464.488 117.261C464.763 117.203 465.072 116.969 465.417 116.561C465.797 116.096 466.191 115.581 466.597 115.016C467.05 114.44 467.507 113.888 467.97 113.358C468.422 112.783 468.881 112.35 469.347 112.059C469.531 111.349 469.692 110.644 469.831 109.944C470.015 109.234 470.366 108.632 470.884 108.138L470.459 106.144C470.81 105.542 471.194 104.981 471.611 104.462C472.073 103.932 472.373 103.317 472.512 102.617C472.761 102.66 472.982 102.685 473.175 102.691C473.414 102.689 473.648 102.663 473.877 102.614C474.106 102.565 474.331 102.494 474.55 102.399C474.816 102.295 475.053 102.172 475.263 102.032C475.737 102.458 476.134 102.973 476.454 103.576C476.81 104.123 477.208 104.638 477.646 105.12C477.409 106.033 477.137 107.121 476.831 108.384C476.525 109.647 476.173 110.92 475.775 112.202C475.377 113.485 474.924 114.732 474.415 115.942C473.942 117.097 473.42 118.022 472.85 118.719C472.741 118.885 472.477 119.109 472.058 119.39C471.632 119.864 471.246 120.305 470.902 120.714C470.568 121.169 470.266 121.664 469.997 122.2C468.755 122.896 467.588 123.719 466.497 124.67C465.451 125.611 464.4 126.529 463.345 127.424C462.765 127.404 462.155 127.461 461.513 127.598C460.963 127.715 460.417 127.855 459.877 128.018C459.346 128.226 458.76 128.399 458.118 128.535C457.886 128.345 457.576 128.243 457.19 128.229C456.859 128.252 456.696 128.047 456.7 127.615C455.121 127.854 453.768 127.687 452.639 127.112C451.52 126.583 450.499 125.842 449.577 124.887C448.701 123.924 447.92 122.844 447.234 121.648C446.548 120.452 445.849 119.306 445.136 118.212L445.092 118.005C445.043 117.776 445.106 117.619 445.28 117.534C445.453 117.45 445.516 117.292 445.467 117.063C445.447 116.972 445.41 116.908 445.354 116.872C445.109 116.396 444.902 115.985 444.732 115.638C444.562 115.291 444.423 114.865 444.316 114.361C444.16 113.627 444.054 112.907 444 112.199C443.935 111.446 443.825 110.703 443.669 109.97C443.512 109.236 443.284 108.614 442.983 108.103C443.118 107.834 443.215 107.502 443.274 107.106C443.278 106.674 443.259 106.247 443.217 105.824C443.175 105.402 443.11 104.985 443.022 104.572C442.98 104.15 442.971 103.768 442.994 103.428C442.704 102.962 442.45 102.561 442.235 102.223C442.009 101.84 441.838 101.373 441.721 100.823L441.618 100.342C441.911 99.4649 442.13 98.5797 442.275 97.6863C442.42 96.7928 442.583 95.8715 442.765 94.9225L442.721 94.7162C442.438 93.3866 442.109 92.0668 441.734 90.7567C441.359 89.4466 441.03 88.1268 440.747 86.7973L440.469 85.4906C440.371 85.0322 440.301 84.5917 440.259 84.1694C440.587 83.908 440.808 83.5974 440.923 83.2375C441.038 82.8776 441.26 82.5669 441.588 82.3056L443.857 81.8231L444.123 81.0477C444.212 80.7893 444.25 80.5176 444.237 80.2328C444.712 79.988 445.155 79.7023 445.564 79.3756C446.01 78.9933 446.41 78.6208 446.764 78.258C447.328 77.7548 447.833 77.312 448.279 76.9297C448.76 76.4919 449.234 76.1276 449.699 75.837C450.201 75.4909 450.735 75.1856 451.302 74.9214C451.868 74.6572 452.532 74.3964 453.292 74.139C453.658 74.061 453.873 73.9435 453.935 73.7865C454.044 73.6197 454.193 73.4203 454.383 73.1881C454.953 73.1629 455.523 73.1376 456.092 73.1124C456.652 73.0413 457.207 72.9472 457.758 72.8303C458.858 72.5964 459.846 72.1708 460.721 71.5535C462.096 71.2611 463.444 70.9507 464.764 70.6222C466.13 70.284 467.5 69.9687 468.876 69.6763C470.068 69.4229 471.27 69.2154 472.481 69.0537C473.693 68.892 474.896 68.804 476.092 68.7895C476.475 68.5643 476.919 68.3981 477.423 68.2909C477.973 68.1739 478.538 68.1257 479.118 68.1463C479.733 68.1113 480.306 67.9895 480.837 67.7808C480.99 68.2754 481.198 68.6866 481.459 69.0144C481.757 69.2866 481.954 69.6519 482.052 70.1104Z" fill="black"/>
</svg>
