<svg width="616" height="366" viewBox="0 0 616 366" fill="none" xmlns="http://www.w3.org/2000/svg">
<path d="M44.5602 10.1666C44.5602 38.9251 39.9827 66.524 37.0454 94.9049C33.2657 131.426 31.0694 168.683 25.3558 204.679C19.5933 240.984 11.0527 278.689 9.99231 316.139C9.8857 319.904 6.17502 341.295 9.15734 343.342C13.2255 346.135 21.4246 344.425 25.7733 344.907C37.3565 346.191 48.98 347.15 60.5917 347.675C109.435 349.884 158.391 345.808 207.213 349.12C254.895 352.354 302.426 352.49 350.16 352.49C403.104 352.49 457.097 340.537 509.807 352.49C518.984 354.571 533.16 360.634 542.705 356.703C544.941 355.782 548.513 324.283 549.051 321.676C555.338 291.191 562.838 261.257 568.422 230.438C572.063 210.342 572.532 190.458 573.933 170.014C575.871 141.735 578.198 110.143 586.374 83.9515C589.106 75.2017 592.4 66.4581 595.392 57.8319C596.508 54.6137 600.031 48.5091 600.569 45.7952C601.818 39.493 608 30.0786 608 24.2495C608 22.2286 603.439 24.7606 602.99 24.8514C595.184 26.4308 586.879 25.3328 579.026 25.3328C552.371 25.3328 525.773 23.1662 499.12 23.1662C445.013 23.1662 390.907 23.1662 336.801 23.1662C257.14 23.1662 177.617 18.1859 98.1655 10.287C80.7866 8.55919 63.5564 8 46.0631 8" stroke="black" stroke-width="15" stroke-linecap="round"/>
<path d="M308.241 157.558C304.389 155.337 299.262 149.131 294.874 152.505C290.796 155.641 287.81 161.677 285.384 167.172C282.792 173.042 280.989 186.107 284.016 192.317C291.651 207.981 305.907 215.49 315.822 199.547C321.361 190.642 318.52 178.947 315.537 169.391C313.802 163.831 310.542 154.41 306.702 151.642" stroke="black" stroke-width="15" stroke-linecap="round"/>
<path d="M316.037 189.613C316.037 200.352 318.666 212.88 328.34 215.325C331.27 216.066 334.079 214.731 336.799 213.616C341.057 211.87 342.405 209.501 345.286 205.581C351.518 197.101 353.407 187.202 352.377 176.074C351.128 162.57 346.945 147.543 339.277 137.301C335.035 131.636 328.361 127.147 322.73 123.864C318.969 121.671 314.298 120.068 310.056 120.068C304.966 120.068 299.539 119.538 294.62 121.436C288.837 123.668 284.581 128.384 279.639 132.377C276.029 135.295 271.23 138.387 268.361 142.361C265.619 146.159 263.135 150.214 260.444 154.054C249.842 169.184 253.586 191.337 259.76 207.872C261.882 213.554 266.923 218.973 270.867 222.848C272.561 224.511 274.125 226.349 275.794 228.045C277.497 229.774 279.881 230.535 281.718 232.079C285.03 234.862 290.084 235.063 293.879 236.387C298.384 237.959 302.689 238.234 307.322 238.234C314.714 238.234 322.537 239.081 329.85 237.926C336.764 236.834 345.618 237.812 351.922 233.926C355.4 231.781 360.94 228.763 363.2 224.694" stroke="black" stroke-width="15" stroke-linecap="round"/>
<path d="M268.226 129.456C256.839 128.284 244.985 122.61 233.969 118.774C215.81 112.45 197.777 106.592 180.046 97.985C168.429 92.3459 157.086 85.4501 145.446 79.9486C141.518 78.092 138.012 75.0377 134.103 73.0874C125.378 68.7333 117.497 62.0695 109.137 56.5711C100.459 50.8636 91.6555 45.2393 82.5176 41.2875C76.593 38.7253 70.2323 36.8929 64.5624 33.3169C60.7791 30.9309 56.7759 29.4256 53.5612 25.634C52.3347 24.1873 50.4726 23.1925 49.0581 22.2239C46.5237 20.4885 44.2785 17.7203 41.4771 17.0472" stroke="black" stroke-width="15" stroke-linecap="round"/>
<path d="M351.333 153.861C370.473 146.963 389.475 139.992 408.22 131.1C429.856 120.836 451.436 110.366 473.258 100.943C503.263 87.9864 533.907 75.7474 562.065 55.585C570.436 49.5912 578.74 43.3526 585.664 34.2207C587.82 31.377 590.746 31.2732 592.96 28.8797" stroke="black" stroke-width="15" stroke-linecap="round"/>
<path d="M85.6683 310.344C85.6685 310.812 85.5281 311.211 85.2469 311.539C85.0127 311.82 84.7081 312.078 84.3332 312.312C84.0051 312.547 83.6536 312.758 83.2787 312.945C82.9507 313.133 82.6461 313.367 82.3649 313.648C82.1775 313.836 82.037 314.07 81.9433 314.352C81.8965 314.586 81.7794 314.75 81.5919 314.844C81.3108 315.078 81.0061 315.219 80.678 315.266C80.3499 315.312 79.9984 315.383 79.6234 315.477C79.2953 315.523 78.9672 315.617 78.6392 315.758C78.3111 315.852 78.0299 316.062 77.7957 316.391C75.5926 316.625 73.413 316.93 71.2569 317.305C69.1477 317.68 66.9681 317.867 64.7181 317.867C64.2962 317.867 63.8275 317.914 63.3119 318.008C62.8432 318.055 62.3979 318.102 61.976 318.148C60.9917 318.242 60.0073 318.312 59.023 318.359C58.0855 318.406 57.1246 318.43 56.1402 318.43C54.7808 318.43 53.4214 318.383 52.062 318.289C50.7026 318.148 49.3666 317.937 48.0539 317.656C47.7257 317.422 47.3507 317.234 46.9287 317.094C46.5068 316.953 46.0614 316.812 45.5926 316.672C45.1707 316.531 44.7722 316.367 44.3971 316.18C44.0221 315.992 43.7407 315.711 43.5531 315.336C42.8499 315.289 42.2171 315.148 41.6545 314.914C41.1388 314.68 40.6465 314.422 40.1776 314.141C39.7556 313.812 39.3102 313.484 38.8413 313.156C38.3724 312.828 37.8333 312.547 37.2238 312.312C36.7548 311.656 36.2624 311.023 35.7465 310.414C35.2775 309.758 34.6914 309.219 33.9881 308.797C33.8471 307.906 33.6124 307.016 33.2839 306.125C33.0023 305.234 32.6973 304.367 32.3689 303.523C32.0873 302.633 31.8526 301.742 31.6647 300.852C31.43 299.961 31.3125 299.047 31.3121 298.109C31.3119 297.453 31.4053 296.656 31.5925 295.719C31.7796 294.781 32.0136 293.844 32.2945 292.906C32.6223 291.922 32.9969 291.008 33.4185 290.164C33.84 289.32 34.2617 288.641 34.6833 288.125C34.8239 287.984 34.9879 287.867 35.1754 287.773C35.3629 287.68 35.5269 287.539 35.6674 287.352C36.0891 286.883 36.5343 286.508 37.0029 286.227C37.4716 285.898 37.9636 285.523 38.4791 285.102C38.6665 284.914 38.807 284.703 38.9007 284.469C39.0412 284.234 39.2287 284.023 39.463 283.836C39.6035 283.742 39.791 283.719 40.0254 283.766C40.3067 283.812 40.5411 283.766 40.7285 283.625C40.9159 283.484 41.0096 283.32 41.0096 283.133C41.0095 282.945 41.0797 282.781 41.2203 282.641C41.2672 282.594 41.4078 282.594 41.6422 282.641C41.8766 282.641 42.0172 282.641 42.0641 282.641C42.3922 282.641 42.7671 282.43 43.1888 282.008C43.6105 281.539 43.962 281.234 44.2432 281.094C44.5712 280.906 44.8993 280.789 45.2274 280.742C45.5555 280.648 45.907 280.508 46.2819 280.32C46.7974 280.039 47.2896 279.828 47.7583 279.687C48.2738 279.5 48.7893 279.289 49.3049 279.055C49.5861 278.961 49.8438 278.797 50.0781 278.562C50.3124 278.328 50.5467 278.164 50.7811 278.07C51.2029 277.93 51.6482 277.836 52.1169 277.789C52.6325 277.695 53.1012 277.625 53.5231 277.578C53.9918 277.484 54.4371 277.391 54.8589 277.297C55.3276 277.156 55.7494 276.922 56.1243 276.594H56.6868C57.5305 276.594 58.3508 276.477 59.1476 276.242C59.9443 276.008 60.7646 275.891 61.6084 275.891C61.8427 275.891 62.1943 275.937 62.6631 276.031C63.038 275.797 63.4598 275.68 63.9286 275.68C64.7255 275.68 65.5224 275.891 66.3195 276.312C67.1165 276.687 67.9369 276.875 68.7806 276.875H69.2025C69.39 276.875 69.5775 276.852 69.765 276.805C70.2808 277.32 70.8903 277.602 71.5934 277.648C72.3434 277.695 72.9763 277.906 73.4921 278.281C73.8203 278.562 74.0783 278.891 74.2659 279.266C74.5004 279.641 74.6881 280.039 74.8289 280.461L75.2512 281.727C75.392 282.148 75.5796 282.523 75.8141 282.852C75.5804 284.539 74.8778 285.898 73.7063 286.93C72.5817 287.914 71.1522 288.406 69.4178 288.406C68.7616 288.406 68.199 288.336 67.7302 288.195C67.3083 288.008 66.9098 287.82 66.5347 287.633C66.2065 287.445 65.8549 287.258 65.4798 287.07C65.1047 286.883 64.6828 286.742 64.214 286.648C64.7293 285.711 65.057 284.703 65.1972 283.625C64.6815 283.391 64.1658 283.227 63.6502 283.133C63.1345 283.039 62.6423 282.875 62.1734 282.641C60.9079 282.969 59.6658 283.203 58.4471 283.344C57.2753 283.437 56.1739 283.93 55.143 284.82C54.9086 284.773 54.6508 284.727 54.3695 284.68C54.1351 284.633 53.9007 284.609 53.6664 284.609C53.3851 284.609 52.8227 284.82 51.9791 285.242C51.1355 285.617 50.2216 286.062 49.2374 286.578C48.3001 287.094 47.3863 287.609 46.4958 288.125C45.6523 288.641 45.0665 288.992 44.7384 289.18C44.3635 289.414 44.0355 289.695 43.7544 290.023C43.4732 290.352 43.1921 290.703 42.911 291.078C42.6299 291.406 42.3488 291.734 42.0676 292.062C41.7865 292.344 41.435 292.555 41.0132 292.695C40.9196 293.211 40.7558 293.656 40.5215 294.031C40.2873 294.406 40.0296 294.805 39.7485 295.227C39.702 296.07 39.6086 296.914 39.4683 297.758C39.3748 298.602 39.3283 299.445 39.3286 300.289L39.3289 301.203C39.329 301.484 39.376 301.742 39.4699 301.977C39.9388 302.586 40.3141 303.266 40.5956 304.016C40.924 304.766 41.4633 305.281 42.2134 305.562C42.2604 305.75 42.237 305.867 42.1432 305.914C42.0964 305.961 42.0495 306.078 42.0027 306.266C42.2842 306.781 42.6359 307.203 43.0579 307.531C43.5268 307.812 43.9956 308.117 44.4645 308.445C44.9334 308.727 45.3788 309.031 45.8008 309.359C46.2228 309.687 46.5511 310.109 46.7856 310.625C47.4888 310.625 48.1451 310.742 48.7545 310.977C49.4109 311.211 50.0203 311.469 50.583 311.75C51.1924 312.031 51.755 312.289 52.2707 312.523C52.8333 312.758 53.3959 312.875 53.9584 312.875C54.474 312.875 54.9427 312.805 55.3645 312.664C56.5834 313.039 57.8023 313.32 59.0211 313.508C60.2868 313.648 61.5524 313.719 62.8181 313.719C64.3649 313.719 65.9118 313.625 67.4586 313.437C69.0054 313.25 70.5522 313.086 72.099 312.945C72.6615 312.852 73.2005 312.805 73.7162 312.805C74.2318 312.805 74.7474 312.758 75.263 312.664C75.9192 312.57 76.5285 312.266 77.0908 311.75C77.6999 311.234 78.2857 310.859 78.8481 310.625C79.3639 310.953 79.9733 311.117 80.6765 311.117C81.4733 311.117 82.2467 311 82.9966 310.766C83.7465 310.484 84.5199 310.344 85.3168 310.344H85.6683ZM129.603 282.289C129.322 282.711 129.158 283.18 129.111 283.695C129.065 284.211 129.041 284.68 129.042 285.102C129.042 285.664 129.042 286.227 129.042 286.789C129.089 287.305 129.113 287.82 129.113 288.336L129.113 289.391C129.02 289.719 128.879 290.047 128.692 290.375C128.505 290.703 128.364 291.031 128.27 291.359C127.615 293.094 127.287 294.828 127.288 296.562L127.288 296.703C127.054 297.266 126.82 297.781 126.586 298.25C126.398 298.719 126.211 299.187 126.024 299.656C125.836 300.078 125.696 300.547 125.602 301.062C125.509 301.531 125.486 302.094 125.533 302.75C124.877 304.391 124.01 305.891 122.933 307.25C121.855 308.562 120.801 309.922 119.77 311.328C118.786 311.703 117.872 312.195 117.029 312.805C116.232 313.414 115.459 314.094 114.709 314.844C113.256 315.312 111.827 315.852 110.421 316.461C109.015 317.07 107.749 317.891 106.625 318.922C105.734 319.016 104.844 319.156 103.953 319.344C103.062 319.531 102.195 319.812 101.352 320.187H100.508C100.086 320.187 99.7814 320.094 99.5939 319.906C98.9846 320.234 98.3519 320.469 97.6957 320.609C97.0395 320.703 96.3832 320.75 95.727 320.75C94.8832 320.75 94.0395 320.703 93.1957 320.609C92.3988 320.469 91.5784 320.328 90.7346 320.187C90.2656 319.531 89.6092 319.039 88.7653 318.711C87.9214 318.336 87.1713 317.984 86.5149 317.656C85.1548 315.781 84.1697 313.977 83.5597 312.242C82.9496 310.461 82.3161 308.469 81.659 306.266C81.7525 305.609 81.9163 304.977 82.1505 304.367C82.3846 303.711 82.4781 303.008 82.4309 302.258C83.2737 299.82 84.3744 297.617 85.7331 295.648C87.1386 293.633 88.7316 291.711 90.5121 289.883C90.512 289.602 90.5588 289.367 90.6525 289.18C90.793 288.992 90.8164 288.711 90.7225 288.336C90.7694 288.383 90.8631 288.406 91.0038 288.406C91.3788 288.406 91.6131 288.312 91.7068 288.125C91.8004 287.891 91.8238 287.633 91.7768 287.352C93.4639 286.273 94.9868 285.031 96.3457 283.625C97.7514 282.219 99.3447 281.047 101.126 280.109C101.266 279.687 101.5 279.336 101.828 279.055C102.156 278.773 102.414 278.445 102.601 278.07C104.101 277.648 105.46 277.016 106.679 276.172C107.897 275.328 109.186 274.578 110.545 273.922C111.295 273.5 111.998 273.219 112.654 273.078C113.357 272.891 114.107 272.703 114.904 272.516C115.185 272.422 115.443 272.352 115.677 272.305C115.912 272.258 116.169 272.234 116.451 272.234C117.294 272.234 118.115 272.398 118.912 272.727C119.709 273.008 120.529 273.148 121.373 273.148C121.607 273.148 121.795 273.148 121.935 273.148C122.123 273.102 122.31 273.055 122.498 273.008C123.295 273.992 124.303 274.742 125.522 275.258C125.804 275.961 126.132 276.57 126.507 277.086C126.929 277.602 127.351 278.117 127.773 278.633C128.196 279.102 128.571 279.641 128.899 280.25C129.274 280.812 129.509 281.492 129.603 282.289ZM122.573 285.945C122.573 285.711 122.55 285.5 122.503 285.312C122.034 285.172 121.588 284.984 121.166 284.75C120.744 284.516 120.276 284.398 119.76 284.398C119.432 284.398 119.104 284.469 118.776 284.609C118.729 284.281 118.588 284.047 118.354 283.906C118.166 283.766 117.932 283.648 117.65 283.555C117.416 283.414 117.158 283.32 116.877 283.273C116.642 283.18 116.431 283.039 116.244 282.852C116.103 282.477 115.939 282.102 115.751 281.727C115.61 281.305 115.329 281 114.907 280.812C114.485 281.234 113.993 281.586 113.431 281.867C112.869 282.102 112.283 282.336 111.673 282.57C111.111 282.805 110.549 283.086 109.986 283.414C109.471 283.742 109.026 284.141 108.651 284.609H107.385C107.104 285.125 106.706 285.523 106.19 285.805C105.675 286.039 105.23 286.391 104.855 286.859C104.105 287.234 103.402 287.703 102.746 288.266C102.137 288.781 101.528 289.344 100.918 289.953C100.309 290.516 99.7001 291.102 99.0909 291.711C98.5287 292.32 97.9195 292.883 97.2635 293.398C96.6546 294.711 95.9753 295.859 95.2257 296.844C94.5229 297.781 93.8436 298.742 93.1877 299.727C92.5787 300.711 92.0401 301.789 91.5718 302.961C91.1503 304.086 90.9399 305.492 90.9406 307.18L90.9408 307.883C90.9409 308.117 90.9645 308.352 91.0114 308.586C91.6211 309.242 92.1135 309.945 92.4888 310.695C92.911 311.445 93.5908 311.984 94.5285 312.312C95.4661 312.687 96.4506 312.852 97.4818 312.805C98.5599 312.758 99.5912 312.875 100.576 313.156C102.826 312.734 104.981 312.055 107.044 311.117C109.153 310.133 111.144 308.961 113.019 307.602C113.3 307.367 113.628 307.133 114.003 306.898C114.378 306.617 114.682 306.336 114.917 306.055C115.151 305.82 115.338 305.562 115.479 305.281C115.666 305 115.854 304.742 116.041 304.508C116.416 303.898 116.838 303.289 117.306 302.68C117.775 302.07 118.267 301.508 118.782 300.992C119.016 299.961 119.32 298.977 119.695 298.039C120.07 297.055 120.444 296.094 120.819 295.156C121.193 294.219 121.498 293.258 121.732 292.273C122.013 291.289 122.153 290.258 122.152 289.18C122.152 288.945 122.129 288.687 122.082 288.406C122.082 288.125 122.058 287.867 122.011 287.633C122.386 287.117 122.573 286.555 122.573 285.945ZM180.718 276.805C180.625 277.367 180.484 277.859 180.297 278.281C180.156 278.656 180.133 279.172 180.227 279.828C179.758 279.875 179.383 280.039 179.102 280.32C178.868 280.555 178.657 280.836 178.47 281.164C178.329 281.492 178.165 281.844 177.978 282.219C177.837 282.547 177.65 282.852 177.416 283.133C177.791 284.82 178.003 286.531 178.051 288.266C178.098 290 178.216 291.711 178.404 293.398C178.639 295.555 178.992 297.687 179.461 299.797C179.978 301.859 180.236 303.969 180.237 306.125C180.237 306.781 180.214 307.391 180.167 307.953C180.168 308.516 180.168 309.102 180.168 309.711C180.168 310.086 180.168 310.484 180.169 310.906C180.216 311.281 180.239 311.656 180.239 312.031C180.24 313.391 180.053 314.75 179.678 316.109C179.351 317.469 179.093 318.828 178.906 320.187C178.344 320.703 177.852 321.266 177.431 321.875C177.056 322.484 176.658 323.047 176.236 323.562C175.814 324.078 175.322 324.523 174.76 324.898C174.197 325.32 173.494 325.602 172.651 325.742C172.51 326.211 172.229 326.562 171.807 326.797C171.433 327.031 171.105 327.359 170.823 327.781H170.683C169.511 327.781 168.503 327.617 167.659 327.289C166.815 326.961 166.018 326.586 165.268 326.164C164.565 325.742 163.838 325.297 163.088 324.828C162.338 324.359 161.47 323.984 160.486 323.703C159.173 322.625 157.977 321.453 156.899 320.187C155.82 318.875 154.601 317.703 153.241 316.672C152.913 315.734 152.467 314.961 151.904 314.352C151.388 313.742 150.872 313.039 150.357 312.242C150.122 311.914 149.934 311.609 149.794 311.328C149.7 311.047 149.559 310.719 149.371 310.344C149.231 309.969 148.996 309.711 148.668 309.57C148.387 309.43 148.129 309.266 147.894 309.078C147.519 307.625 146.979 306.289 146.276 305.07C145.572 303.852 144.751 302.68 143.813 301.555C143.532 302.07 143.298 302.633 143.111 303.242C142.971 303.805 142.83 304.391 142.69 305C142.549 305.562 142.362 306.148 142.128 306.758C141.941 307.32 141.683 307.836 141.355 308.305L141.355 308.516C141.355 308.75 141.449 308.891 141.637 308.937C141.824 308.984 141.918 309.125 141.918 309.359C141.918 309.406 141.895 309.453 141.848 309.5C141.848 309.547 141.848 309.594 141.848 309.641C141.613 309.828 141.426 310.062 141.286 310.344C141.192 310.625 140.958 310.789 140.583 310.836C140.63 311.07 140.653 311.305 140.653 311.539L140.653 312.172C140.654 313.531 140.49 314.891 140.163 316.25C139.882 317.609 139.742 318.992 139.742 320.398L139.743 321.312C139.743 321.641 139.767 321.945 139.813 322.227C139.907 322.508 140.048 322.789 140.236 323.07C140.423 323.352 140.517 323.609 140.517 323.844C140.517 324.172 140.377 324.477 140.096 324.758C140.424 324.992 140.799 325.25 141.221 325.531C141.643 325.812 142.018 326.117 142.346 326.445C142.721 326.82 143.026 327.195 143.261 327.57C143.495 327.992 143.613 328.437 143.613 328.906C143.613 329.703 143.356 330.266 142.84 330.594C142.325 330.922 141.692 331.18 140.942 331.367C140.239 331.555 139.489 331.719 138.692 331.859C137.942 332.047 137.31 332.352 136.794 332.773H136.583C136.021 332.773 135.599 332.609 135.317 332.281C135.036 331.953 134.614 331.789 134.052 331.789C133.16 330.336 132.55 328.695 132.222 326.867C131.893 325.086 131.728 323.375 131.727 321.734C131.727 319.719 131.913 317.703 132.288 315.687C132.615 313.672 133.036 311.68 133.551 309.711C134.019 307.742 134.534 305.797 135.096 303.875C135.704 301.906 136.266 299.937 136.781 297.969L136.851 297.758C136.851 297.523 136.781 297.359 136.64 297.266C136.546 297.172 136.499 297.031 136.499 296.844C136.499 296.75 136.523 296.703 136.569 296.703C136.71 296.234 136.85 295.789 136.991 295.367C137.178 294.945 137.319 294.477 137.412 293.961C137.693 292.648 137.88 291.312 137.973 289.953C138.113 288.547 138.183 287.164 138.182 285.805C138.229 284.445 138.275 283.086 138.322 281.727C138.415 280.32 138.578 278.937 138.812 277.578C139.187 277.203 139.538 276.805 139.866 276.383C140.194 275.961 140.616 275.586 141.132 275.258C142.069 275.305 143.007 275.445 143.944 275.68C144.882 275.914 145.773 276.289 146.617 276.805C147.18 278.82 147.556 280.836 147.744 282.852C147.979 284.867 148.355 286.883 148.871 288.898L148.871 289.109C148.871 289.344 148.989 289.461 149.223 289.461C149.504 289.414 149.715 289.484 149.856 289.672C149.762 289.812 149.692 289.977 149.645 290.164C149.645 290.352 149.645 290.539 149.645 290.727L149.646 291.922C149.74 292.297 149.857 292.695 149.998 293.117C150.139 293.539 150.443 293.797 150.912 293.891C151.147 295.391 151.499 296.773 151.968 298.039C152.438 299.305 152.977 300.523 153.587 301.695C154.197 302.867 154.853 304.039 155.557 305.211C156.261 306.336 156.988 307.531 157.738 308.797C158.91 309.687 159.918 310.719 160.763 311.891C161.607 313.016 162.451 314.117 163.295 315.195C164.186 316.227 165.171 317.141 166.249 317.937C167.375 318.734 168.828 319.227 170.609 319.414C170.844 319.227 171.008 318.969 171.101 318.641L171.452 317.656C171.593 317.328 171.733 317.047 171.874 316.812C172.061 316.531 172.319 316.32 172.647 316.18C172.74 314.867 172.834 313.531 172.927 312.172C173.067 310.812 173.371 309.523 173.839 308.305C173.605 307.883 173.488 307.367 173.487 306.758C173.487 306.289 173.51 305.844 173.557 305.422C173.651 305 173.697 304.578 173.697 304.156C173.697 303.266 173.509 302.539 173.134 301.977C173.134 301.648 173.157 301.32 173.204 300.992C173.251 300.617 173.391 300.266 173.625 299.937C173.25 299 172.945 298.016 172.71 296.984C172.522 295.953 172.428 294.898 172.428 293.82C172.427 293.211 172.498 292.578 172.638 291.922C172.356 291.219 172.169 290.398 172.074 289.461L171.792 286.578C171.698 285.594 171.557 284.68 171.369 283.836C171.181 282.992 170.83 282.312 170.314 281.797C170.595 281.375 170.735 280.883 170.735 280.32C170.735 279.383 170.594 278.492 170.312 277.648C170.031 276.805 169.89 275.914 169.889 274.977C169.889 274.32 170.029 273.664 170.31 273.008C171.342 273.055 172.35 273.172 173.334 273.359C174.365 273.5 175.373 273.57 176.357 273.57C176.639 273.945 176.967 274.25 177.342 274.484C177.717 274.719 178.116 274.953 178.538 275.187C178.96 275.375 179.358 275.586 179.733 275.82C180.155 276.055 180.484 276.383 180.718 276.805ZM248.289 277.789C248.101 278.398 247.797 278.961 247.375 279.477L246.181 280.953C245.806 281.422 245.478 281.937 245.197 282.5C244.963 283.016 244.893 283.625 244.987 284.328C244.893 284.328 244.776 284.328 244.635 284.328C244.494 284.281 244.377 284.258 244.283 284.258C243.533 284.258 242.948 284.445 242.526 284.82C242.151 285.148 241.635 285.43 240.979 285.664C240.885 285.383 240.768 285.125 240.627 284.891C240.487 284.609 240.276 284.422 239.994 284.328C238.869 284.562 237.745 284.75 236.62 284.891C235.495 284.984 234.37 285.125 233.245 285.312C232.729 285.406 232.214 285.547 231.698 285.734C231.182 285.875 230.643 286.016 230.081 286.156C229.8 286.25 229.495 286.297 229.167 286.297C228.839 286.25 228.511 286.25 228.183 286.297C227.058 286.344 225.839 286.437 224.526 286.578C223.214 286.672 222.042 287.023 221.011 287.633C220.542 287.539 220.05 287.469 219.535 287.422C219.019 287.375 218.503 287.352 217.988 287.352C216.863 287.352 215.621 287.469 214.261 287.703C212.949 287.891 211.777 288.289 210.746 288.898C210.512 288.805 210.254 288.734 209.973 288.687C209.738 288.641 209.457 288.617 209.129 288.617C209.035 288.617 208.965 288.641 208.918 288.687C208.871 288.687 208.801 288.687 208.707 288.687C208.66 289.109 208.707 289.531 208.848 289.953C209.036 290.328 209.341 290.633 209.762 290.867C209.575 291.383 209.482 291.945 209.482 292.555C209.482 293.352 209.529 294.148 209.623 294.945C209.764 295.742 209.835 296.539 209.835 297.336C209.836 298.227 209.719 298.93 209.484 299.445C209.954 300.852 210.189 302.352 210.189 303.945C210.19 304.508 210.143 305.07 210.049 305.633C210.003 306.148 209.979 306.711 209.98 307.32C209.98 307.836 210.168 308.258 210.543 308.586C210.918 308.867 211.105 309.266 211.106 309.781C211.106 309.969 211.059 310.156 210.965 310.344C211.621 310.203 212.254 310.016 212.863 309.781C213.473 309.5 214.105 309.359 214.762 309.359C215.137 309.359 215.488 309.43 215.816 309.57C216.192 309.711 216.52 309.898 216.801 310.133C216.754 310.367 216.708 310.625 216.661 310.906C216.661 311.187 216.661 311.469 216.661 311.75C216.661 312.266 216.661 312.758 216.662 313.227C216.709 313.648 216.756 314.117 216.803 314.633C216.428 315.289 215.983 315.875 215.468 316.391C214.999 316.906 214.671 317.562 214.484 318.359C213.781 318.359 213.148 318.523 212.586 318.852C212.07 319.133 211.578 319.461 211.109 319.836C210.641 320.164 210.172 320.492 209.704 320.82C209.235 321.102 208.719 321.242 208.157 321.242C207.454 321.242 206.962 321.148 206.68 320.961C206.399 320.727 206.188 320.492 206.047 320.258C205.906 320.023 205.766 319.812 205.625 319.625C205.531 319.437 205.297 319.367 204.922 319.414C204.828 318.805 204.64 318.242 204.359 317.727C204.077 317.164 203.772 316.625 203.444 316.109C203.163 315.594 202.858 315.078 202.529 314.562C202.248 314 202.037 313.437 201.896 312.875C201.614 311.656 201.496 310.391 201.543 309.078C201.589 307.766 201.378 306.5 200.909 305.281C201.002 304.625 201.072 303.969 201.119 303.312C201.165 302.609 201.189 301.93 201.188 301.273C201.188 299.961 201.14 298.672 201.046 297.406C200.999 296.094 200.951 294.758 200.904 293.398C200.576 292.977 200.365 292.508 200.271 291.992C200.224 291.43 200.177 290.891 200.129 290.375C199.989 290.234 199.825 290.094 199.637 289.953C199.496 289.812 199.403 289.625 199.356 289.391C198.981 289.297 198.699 289.25 198.512 289.25C197.856 289.25 197.293 289.414 196.825 289.742C196.403 290.023 196.004 290.164 195.629 290.164C195.254 290.164 194.903 290.117 194.575 290.023C194.247 289.93 193.918 289.883 193.59 289.883C193.309 289.883 193.145 289.953 193.098 290.094C193.098 290.187 193.004 290.281 192.817 290.375C192.676 290.469 192.348 290.562 191.833 290.656C191.317 290.75 190.731 290.844 190.075 290.937C189.466 290.984 188.856 291.031 188.247 291.078C187.684 291.125 187.309 291.148 187.122 291.148C186.372 291.148 185.809 291.008 185.434 290.727C185.012 290.398 184.52 290.047 183.957 289.672C184.051 289.391 184.098 289.203 184.098 289.109C184.098 288.641 183.957 288.266 183.675 287.984C183.394 287.656 183.253 287.375 183.253 287.141C183.253 286.625 183.464 286.227 183.886 285.945C184.261 285.664 184.471 285.219 184.518 284.609C185.596 284.141 186.697 283.789 187.822 283.555C188.947 283.32 190.095 283.133 191.267 282.992C192.439 282.852 193.587 282.687 194.712 282.5C195.884 282.312 197.033 282.008 198.157 281.586C198.486 281.633 198.79 281.68 199.072 281.727C199.4 281.727 199.728 281.727 200.056 281.727C201.462 281.727 202.845 281.586 204.204 281.305C205.61 280.977 207.04 280.812 208.493 280.812C208.868 280.812 209.243 280.836 209.618 280.883C209.993 280.93 210.368 281 210.743 281.094C212.618 280.812 214.469 280.508 216.297 280.18C218.172 279.852 220.094 279.57 222.063 279.336C223 279.242 223.914 279.172 224.805 279.125C225.742 279.031 226.68 278.914 227.617 278.773C227.945 278.727 228.18 278.656 228.32 278.562C228.508 278.422 228.601 278.164 228.601 277.789C229.023 277.977 229.492 278.07 230.008 278.07C230.804 278.07 231.578 277.93 232.328 277.648C233.078 277.367 233.851 277.227 234.648 277.227C234.835 277.227 234.999 277.25 235.14 277.297C235.281 277.297 235.421 277.297 235.562 277.297C235.89 277.297 236.054 277.156 236.054 276.875C236.101 276.547 236.335 276.336 236.757 276.242C237.085 276.148 237.554 276.078 238.163 276.031C238.772 275.984 239.405 275.937 240.061 275.891C240.765 275.797 241.397 275.703 241.96 275.609C242.569 275.469 243.014 275.281 243.296 275.047L243.787 274.273C244.631 274.32 245.241 274.695 245.616 275.398C246.038 276.055 246.273 276.781 246.32 277.578C246.507 277.766 246.765 277.859 247.093 277.859C247.468 277.812 247.797 277.789 248.078 277.789H248.289ZM288.593 317.867C288.453 318.523 288.148 319.062 287.68 319.484C287.258 319.859 286.742 320.164 286.133 320.398C285.524 320.633 284.891 320.797 284.235 320.891C283.625 320.937 283.063 320.961 282.547 320.961C282.313 320.961 282.079 320.961 281.844 320.961C281.657 320.914 281.446 320.891 281.211 320.891C280.977 320.891 280.86 321.008 280.86 321.242C280.86 321.477 280.743 321.641 280.509 321.734C280.274 321.641 280.04 321.57 279.805 321.523C279.571 321.477 279.337 321.453 279.102 321.453C278.774 321.453 278.446 321.477 278.118 321.523C277.837 321.57 277.555 321.594 277.274 321.594C276.899 321.594 276.618 321.547 276.43 321.453C276.29 321.359 276.149 321.266 276.008 321.172C275.915 321.031 275.797 320.891 275.657 320.75C275.563 320.609 275.399 320.492 275.164 320.398C274.836 320.258 274.555 320.234 274.321 320.328C274.133 320.422 273.828 320.281 273.406 319.906C272.844 319.437 272.351 318.875 271.929 318.219C271.554 317.516 271.179 316.789 270.803 316.039C270.428 315.289 270.029 314.539 269.607 313.789C269.185 313.039 268.693 312.383 268.13 311.82H267.567C266.724 311.82 266.138 312.172 265.81 312.875C265.575 312.734 265.341 312.57 265.107 312.383C264.872 312.148 264.614 311.961 264.333 311.82C263.255 312.148 262.13 312.43 260.958 312.664C259.786 312.898 258.615 313.016 257.443 313.016H256.458C256.177 313.016 255.872 312.969 255.544 312.875C255.076 313.062 254.654 313.297 254.279 313.578C253.904 313.812 253.482 313.93 253.013 313.93C252.732 313.93 252.404 313.836 252.029 313.648C251.748 313.648 251.607 313.766 251.607 314C251.654 314.234 251.514 314.352 251.185 314.352H250.553C249.896 314.352 249.24 314.375 248.584 314.422C247.975 314.469 247.342 314.492 246.686 314.492C245.795 314.492 244.881 314.375 243.943 314.141C243.709 314.281 243.451 314.352 243.17 314.352C242.982 314.445 242.842 314.609 242.748 314.844C242.654 315.031 242.561 315.219 242.467 315.406C242.373 315.547 242.233 315.687 242.045 315.828C241.905 315.922 241.694 315.945 241.413 315.898C241.319 316.461 241.085 316.906 240.71 317.234C240.335 317.562 240.148 318.055 240.148 318.711C239.633 318.992 239.211 319.344 238.883 319.766C238.555 320.187 238.227 320.633 237.899 321.102C237.571 321.57 237.22 322.016 236.845 322.437C236.517 322.859 236.095 323.187 235.58 323.422C235.345 323.703 235.275 324.148 235.369 324.758C234.854 325.18 234.221 325.555 233.471 325.883C232.721 326.211 232.018 326.375 231.362 326.375C230.003 326.375 229.065 325.648 228.549 324.195C228.548 323.727 228.595 323.234 228.689 322.719C228.735 322.156 228.829 321.641 228.969 321.172C229.11 320.656 229.321 320.211 229.602 319.836C229.883 319.414 230.281 319.109 230.797 318.922C230.796 318.5 230.656 318.219 230.374 318.078C230.093 317.891 229.976 317.586 230.022 317.164C231.288 316.555 232.389 315.758 233.326 314.773C234.263 313.789 235.107 312.758 235.856 311.68C236.653 310.555 237.449 309.43 238.246 308.305C239.042 307.18 239.932 306.172 240.916 305.281L240.916 303.805C242.322 302.305 243.235 300.617 243.656 298.742C244.172 298.648 244.5 298.414 244.64 298.039C244.828 297.664 244.921 297.219 244.921 296.703C245.155 296.703 245.296 296.609 245.343 296.422C245.436 296.187 245.647 296.117 245.975 296.211C246.397 295.086 246.865 294.055 247.381 293.117C247.896 292.18 248.411 291.242 248.926 290.305C249.442 289.32 249.887 288.312 250.261 287.281C250.683 286.25 250.987 285.102 251.174 283.836C251.83 283.789 252.182 283.484 252.228 282.922C252.322 282.312 252.415 281.773 252.509 281.305C253.212 280.648 253.727 279.875 254.055 278.984C254.429 278.094 254.757 277.18 255.038 276.242C255.319 275.258 255.623 274.297 255.951 273.359C256.326 272.375 256.841 271.508 257.497 270.758L257.497 270.547C257.497 270.312 257.403 270.172 257.216 270.125C257.028 270.031 256.934 269.867 256.934 269.633C256.981 269.586 257.004 269.539 257.004 269.492C257.567 269.258 257.988 268.883 258.27 268.367C258.551 267.805 258.972 267.406 259.535 267.172C260.519 267.969 261.387 268.461 262.137 268.648C262.887 268.789 263.871 268.906 265.09 269C265.7 269.656 266.028 270.453 266.075 271.391C266.169 272.281 266.334 273.172 266.569 274.062C266.944 275.562 267.343 277.039 267.766 278.492C268.235 279.898 268.587 281.352 268.822 282.852C268.963 283.742 269.221 284.586 269.596 285.383C269.972 286.18 270.23 287 270.371 287.844C270.465 288.5 270.465 289.25 270.372 290.094C270.278 290.891 270.372 291.594 270.654 292.203L271.146 293.328C271.381 293.844 271.569 294.383 271.709 294.945C271.897 295.508 272.061 296.07 272.202 296.633C272.578 298.039 272.906 299.562 273.188 301.203C273.517 302.797 274.01 304.25 274.667 305.562C274.901 306.031 275.253 306.359 275.722 306.547C276.237 306.734 276.8 306.875 277.409 306.969C278.019 307.016 278.605 307.039 279.167 307.039C279.776 306.992 280.292 306.969 280.714 306.969H281.417C281.698 306.969 281.98 307.016 282.261 307.109C282.448 307.484 282.542 307.812 282.542 308.094C282.543 308.656 282.355 309.102 281.98 309.43C281.606 309.758 281.418 310.133 281.418 310.555C281.418 310.789 281.512 311.047 281.7 311.328C281.512 311.281 281.231 311.258 280.856 311.258C279.778 311.258 278.723 311.445 277.692 311.82C278.068 312.617 278.56 313.297 279.17 313.859C279.826 314.375 280.506 314.867 281.209 315.336C281.678 314.961 282.17 314.773 282.686 314.773C283.248 314.773 283.764 314.914 284.233 315.195C284.748 315.43 285.287 315.547 285.85 315.547C286.272 315.547 286.577 315.477 286.764 315.336C287.139 315.758 287.444 316.203 287.679 316.672C287.913 317.094 288.218 317.492 288.593 317.867ZM266.581 306.617C266.487 305.82 266.323 305.258 266.088 304.93C265.9 304.555 265.736 304.109 265.595 303.594C265.408 302.937 265.267 302.234 265.173 301.484C265.126 300.734 265.032 300.008 264.891 299.305C264.562 297.711 264.186 296.117 263.764 294.523C263.388 292.93 262.895 291.383 262.286 289.883C262.473 289.602 262.567 289.344 262.566 289.109L262.566 288.898C262.144 288.43 261.839 287.867 261.652 287.211C261.464 286.508 261.276 285.828 261.088 285.172C260.948 284.469 260.736 283.836 260.455 283.273C260.22 282.664 259.822 282.172 259.259 281.797C259.119 282.078 259.048 282.406 259.048 282.781C259.049 283.109 259.072 283.414 259.119 283.695C259.213 283.977 259.26 284.281 259.26 284.609C258.791 284.844 258.44 285.219 258.206 285.734C258.019 286.203 257.691 286.578 257.222 286.859C256.847 288.359 256.309 289.789 255.606 291.148C254.904 292.461 254.154 293.773 253.358 295.086C252.608 296.398 251.882 297.734 251.18 299.094C250.477 300.406 249.915 301.789 249.494 303.242C248.885 303.664 248.463 304.203 248.229 304.859C248.041 305.516 247.948 306.172 247.948 306.828C248.37 307.062 248.839 307.203 249.355 307.25C249.917 307.25 250.456 307.25 250.972 307.25C251.487 307.25 251.98 307.297 252.448 307.391C252.917 307.484 253.339 307.719 253.714 308.094C254.324 307.906 254.98 307.789 255.683 307.742C256.433 307.648 257.042 307.437 257.511 307.109C258.448 307.437 259.456 307.602 260.534 307.602C261.097 307.602 261.636 307.555 262.152 307.461C262.714 307.367 263.253 307.25 263.769 307.109C264.191 307.203 264.519 307.367 264.753 307.602C264.988 307.789 265.339 307.859 265.808 307.812C266.042 307.625 266.183 307.437 266.23 307.25C266.276 307.016 266.394 306.805 266.581 306.617ZM340.762 310.344C340.762 310.812 340.622 311.211 340.341 311.539C340.106 311.82 339.802 312.078 339.427 312.312C339.099 312.547 338.747 312.758 338.372 312.945C338.044 313.133 337.74 313.367 337.459 313.648C337.271 313.836 337.131 314.07 337.037 314.352C336.99 314.586 336.873 314.75 336.686 314.844C336.404 315.078 336.1 315.219 335.772 315.266C335.444 315.312 335.092 315.383 334.717 315.477C334.389 315.523 334.061 315.617 333.733 315.758C333.405 315.852 333.124 316.062 332.889 316.391C330.686 316.625 328.507 316.93 326.351 317.305C324.241 317.68 322.062 317.867 319.812 317.867C319.39 317.867 318.921 317.914 318.406 318.008C317.937 318.055 317.492 318.102 317.07 318.148C316.085 318.242 315.101 318.312 314.117 318.359C313.179 318.406 312.218 318.43 311.234 318.43C309.875 318.43 308.515 318.383 307.156 318.289C305.796 318.148 304.46 317.937 303.148 317.656C302.819 317.422 302.444 317.234 302.022 317.094C301.601 316.953 301.155 316.812 300.686 316.672C300.264 316.531 299.866 316.367 299.491 316.18C299.116 315.992 298.834 315.711 298.647 315.336C297.944 315.289 297.311 315.148 296.748 314.914C296.232 314.68 295.74 314.422 295.271 314.141C294.849 313.812 294.404 313.484 293.935 313.156C293.466 312.828 292.927 312.547 292.318 312.312C291.849 311.656 291.356 311.023 290.84 310.414C290.371 309.758 289.785 309.219 289.082 308.797C288.941 307.906 288.706 307.016 288.378 306.125C288.096 305.234 287.791 304.367 287.463 303.523C287.181 302.633 286.946 301.742 286.758 300.852C286.524 299.961 286.406 299.047 286.406 298.109C286.406 297.453 286.499 296.656 286.686 295.719C286.873 294.781 287.107 293.844 287.388 292.906C287.716 291.922 288.091 291.008 288.512 290.164C288.934 289.32 289.355 288.641 289.777 288.125C289.918 287.984 290.082 287.867 290.269 287.773C290.457 287.68 290.621 287.539 290.761 287.352C291.183 286.883 291.628 286.508 292.097 286.227C292.565 285.898 293.057 285.523 293.573 285.102C293.76 284.914 293.901 284.703 293.994 284.469C294.135 284.234 294.322 284.023 294.557 283.836C294.697 283.742 294.885 283.719 295.119 283.766C295.4 283.812 295.635 283.766 295.822 283.625C296.01 283.484 296.103 283.32 296.103 283.133C296.103 282.945 296.173 282.781 296.314 282.641C296.361 282.594 296.502 282.594 296.736 282.641C296.97 282.641 297.111 282.641 297.158 282.641C297.486 282.641 297.861 282.43 298.283 282.008C298.704 281.539 299.056 281.234 299.337 281.094C299.665 280.906 299.993 280.789 300.321 280.742C300.649 280.648 301.001 280.508 301.376 280.32C301.891 280.039 302.383 279.828 302.852 279.687C303.368 279.5 303.883 279.289 304.399 279.055C304.68 278.961 304.938 278.797 305.172 278.562C305.406 278.328 305.64 278.164 305.875 278.07C306.297 277.93 306.742 277.836 307.211 277.789C307.726 277.695 308.195 277.625 308.617 277.578C309.086 277.484 309.531 277.391 309.953 277.297C310.421 277.156 310.843 276.922 311.218 276.594H311.78C312.624 276.594 313.444 276.477 314.241 276.242C315.038 276.008 315.858 275.891 316.702 275.891C316.936 275.891 317.288 275.937 317.757 276.031C318.132 275.797 318.554 275.68 319.022 275.68C319.819 275.68 320.616 275.891 321.413 276.312C322.21 276.687 323.031 276.875 323.874 276.875H324.296C324.484 276.875 324.671 276.852 324.859 276.805C325.375 277.32 325.984 277.602 326.687 277.648C327.437 277.695 328.07 277.906 328.586 278.281C328.914 278.562 329.172 278.891 329.36 279.266C329.594 279.641 329.782 280.039 329.923 280.461L330.345 281.727C330.486 282.148 330.673 282.523 330.908 282.852C330.674 284.539 329.972 285.898 328.8 286.93C327.675 287.914 326.246 288.406 324.512 288.406C323.855 288.406 323.293 288.336 322.824 288.195C322.402 288.008 322.004 287.82 321.628 287.633C321.3 287.445 320.949 287.258 320.574 287.07C320.198 286.883 319.777 286.742 319.308 286.648C319.823 285.711 320.151 284.703 320.291 283.625C319.775 283.391 319.26 283.227 318.744 283.133C318.228 283.039 317.736 282.875 317.267 282.641C316.002 282.969 314.76 283.203 313.541 283.344C312.369 283.437 311.268 283.93 310.237 284.82C310.002 284.773 309.745 284.727 309.463 284.68C309.229 284.633 308.994 284.609 308.76 284.609C308.479 284.609 307.916 284.82 307.073 285.242C306.229 285.617 305.315 286.062 304.331 286.578C303.394 287.094 302.48 287.609 301.59 288.125C300.746 288.641 300.16 288.992 299.832 289.18C299.457 289.414 299.129 289.695 298.848 290.023C298.567 290.352 298.286 290.703 298.005 291.078C297.724 291.406 297.442 291.734 297.161 292.062C296.88 292.344 296.529 292.555 296.107 292.695C296.013 293.211 295.849 293.656 295.615 294.031C295.381 294.406 295.123 294.805 294.842 295.227C294.796 296.07 294.702 296.914 294.562 297.758C294.469 298.602 294.422 299.445 294.422 300.289L294.423 301.203C294.423 301.484 294.47 301.742 294.564 301.977C295.033 302.586 295.408 303.266 295.689 304.016C296.018 304.766 296.557 305.281 297.307 305.562C297.354 305.75 297.331 305.867 297.237 305.914C297.19 305.961 297.143 306.078 297.096 306.266C297.378 306.781 297.73 307.203 298.152 307.531C298.62 307.812 299.089 308.117 299.558 308.445C300.027 308.727 300.473 309.031 300.895 309.359C301.317 309.687 301.645 310.109 301.879 310.625C302.582 310.625 303.239 310.742 303.848 310.977C304.505 311.211 305.114 311.469 305.677 311.75C306.286 312.031 306.849 312.289 307.364 312.523C307.927 312.758 308.49 312.875 309.052 312.875C309.568 312.875 310.036 312.805 310.458 312.664C311.677 313.039 312.896 313.32 314.115 313.508C315.381 313.648 316.646 313.719 317.912 313.719C319.459 313.719 321.006 313.625 322.552 313.437C324.099 313.25 325.646 313.086 327.193 312.945C327.755 312.852 328.294 312.805 328.81 312.805C329.326 312.805 329.841 312.758 330.357 312.664C331.013 312.57 331.622 312.266 332.184 311.75C332.794 311.234 333.379 310.859 333.942 310.625C334.458 310.953 335.067 311.117 335.77 311.117C336.567 311.117 337.34 311 338.09 310.766C338.84 310.484 339.614 310.344 340.411 310.344H340.762ZM400.726 277.789C400.539 278.398 400.234 278.961 399.813 279.477L398.618 280.953C398.243 281.422 397.915 281.937 397.634 282.5C397.4 283.016 397.33 283.625 397.424 284.328C397.33 284.328 397.213 284.328 397.072 284.328C396.932 284.281 396.815 284.258 396.721 284.258C395.971 284.258 395.385 284.445 394.963 284.82C394.588 285.148 394.073 285.43 393.417 285.664C393.323 285.383 393.206 285.125 393.065 284.891C392.924 284.609 392.713 284.422 392.432 284.328C391.307 284.562 390.182 284.75 389.057 284.891C387.932 284.984 386.807 285.125 385.682 285.312C385.167 285.406 384.651 285.547 384.136 285.734C383.62 285.875 383.081 286.016 382.518 286.156C382.237 286.25 381.933 286.297 381.604 286.297C381.276 286.25 380.948 286.25 380.62 286.297C379.495 286.344 378.276 286.437 376.964 286.578C375.651 286.672 374.48 287.023 373.449 287.633C372.98 287.539 372.488 287.469 371.972 287.422C371.456 287.375 370.941 287.352 370.425 287.352C369.3 287.352 368.058 287.469 366.699 287.703C365.386 287.891 364.215 288.289 363.184 288.898C362.949 288.805 362.691 288.734 362.41 288.687C362.176 288.641 361.894 288.617 361.566 288.617C361.473 288.617 361.402 288.641 361.355 288.687C361.309 288.687 361.238 288.687 361.144 288.687C361.098 289.109 361.145 289.531 361.286 289.953C361.473 290.328 361.778 290.633 362.2 290.867C362.013 291.383 361.919 291.945 361.919 292.555C361.92 293.352 361.967 294.148 362.061 294.945C362.202 295.742 362.272 296.539 362.273 297.336C362.273 298.227 362.156 298.93 361.922 299.445C362.391 300.852 362.626 302.352 362.627 303.945C362.627 304.508 362.58 305.07 362.487 305.633C362.44 306.148 362.417 306.711 362.417 307.32C362.417 307.836 362.605 308.258 362.98 308.586C363.355 308.867 363.543 309.266 363.543 309.781C363.543 309.969 363.496 310.156 363.403 310.344C364.059 310.203 364.692 310.016 365.301 309.781C365.91 309.5 366.543 309.359 367.199 309.359C367.574 309.359 367.926 309.43 368.254 309.57C368.629 309.711 368.957 309.898 369.239 310.133C369.192 310.367 369.145 310.625 369.098 310.906C369.098 311.187 369.098 311.469 369.099 311.75C369.099 312.266 369.099 312.758 369.099 313.227C369.146 313.648 369.193 314.117 369.24 314.633C368.866 315.289 368.42 315.875 367.905 316.391C367.436 316.906 367.109 317.562 366.921 318.359C366.218 318.359 365.585 318.523 365.023 318.852C364.508 319.133 364.016 319.461 363.547 319.836C363.078 320.164 362.61 320.492 362.141 320.82C361.672 321.102 361.157 321.242 360.594 321.242C359.891 321.242 359.399 321.148 359.118 320.961C358.836 320.727 358.625 320.492 358.485 320.258C358.344 320.023 358.203 319.812 358.062 319.625C357.969 319.437 357.734 319.367 357.359 319.414C357.265 318.805 357.078 318.242 356.796 317.727C356.515 317.164 356.21 316.625 355.881 316.109C355.6 315.594 355.295 315.078 354.967 314.562C354.685 314 354.474 313.437 354.333 312.875C354.052 311.656 353.934 310.391 353.98 309.078C354.027 307.766 353.815 306.5 353.346 305.281C353.44 304.625 353.51 303.969 353.556 303.312C353.603 302.609 353.626 301.93 353.626 301.273C353.625 299.961 353.578 298.672 353.484 297.406C353.436 296.094 353.389 294.758 353.342 293.398C353.013 292.977 352.802 292.508 352.708 291.992C352.661 291.43 352.614 290.891 352.567 290.375C352.426 290.234 352.262 290.094 352.075 289.953C351.934 289.812 351.84 289.625 351.793 289.391C351.418 289.297 351.137 289.25 350.949 289.25C350.293 289.25 349.731 289.414 349.262 289.742C348.84 290.023 348.442 290.164 348.067 290.164C347.692 290.164 347.34 290.117 347.012 290.023C346.684 289.93 346.356 289.883 346.028 289.883C345.746 289.883 345.582 289.953 345.536 290.094C345.536 290.187 345.442 290.281 345.254 290.375C345.114 290.469 344.786 290.562 344.27 290.656C343.755 290.75 343.169 290.844 342.512 290.937C341.903 290.984 341.294 291.031 340.684 291.078C340.122 291.125 339.747 291.148 339.559 291.148C338.809 291.148 338.247 291.008 337.872 290.727C337.45 290.398 336.957 290.047 336.395 289.672C336.488 289.391 336.535 289.203 336.535 289.109C336.535 288.641 336.394 288.266 336.113 287.984C335.832 287.656 335.691 287.375 335.691 287.141C335.691 286.625 335.901 286.227 336.323 285.945C336.698 285.664 336.909 285.219 336.955 284.609C338.033 284.141 339.135 283.789 340.26 283.555C341.385 283.32 342.533 283.133 343.705 282.992C344.877 282.852 346.025 282.687 347.15 282.5C348.322 282.312 349.47 282.008 350.595 281.586C350.923 281.633 351.228 281.68 351.509 281.727C351.837 281.727 352.165 281.727 352.493 281.727C353.9 281.727 355.282 281.586 356.642 281.305C358.048 280.977 359.477 280.812 360.931 280.812C361.306 280.812 361.681 280.836 362.056 280.883C362.431 280.93 362.806 281 363.181 281.094C365.056 280.812 366.907 280.508 368.735 280.18C370.61 279.852 372.532 279.57 374.5 279.336C375.438 279.242 376.352 279.172 377.242 279.125C378.18 279.031 379.117 278.914 380.055 278.773C380.383 278.727 380.617 278.656 380.758 278.562C380.945 278.422 381.039 278.164 381.039 277.789C381.461 277.977 381.929 278.07 382.445 278.07C383.242 278.07 384.015 277.93 384.765 277.648C385.515 277.367 386.289 277.227 387.085 277.227C387.273 277.227 387.437 277.25 387.578 277.297C387.718 277.297 387.859 277.297 387.999 277.297C388.328 277.297 388.492 277.156 388.492 276.875C388.538 276.547 388.773 276.336 389.194 276.242C389.522 276.148 389.991 276.078 390.601 276.031C391.21 275.984 391.843 275.937 392.499 275.891C393.202 275.797 393.835 275.703 394.397 275.609C395.007 275.469 395.452 275.281 395.733 275.047L396.225 274.273C397.069 274.32 397.678 274.695 398.053 275.398C398.476 276.055 398.71 276.781 398.757 277.578C398.945 277.766 399.203 277.859 399.531 277.859C399.906 277.812 400.234 277.789 400.515 277.789H400.726ZM488.068 314.141C487.834 314.891 487.764 315.641 487.858 316.391C487.718 316.578 487.554 316.695 487.366 316.742C487.179 316.789 486.991 316.859 486.804 316.953C486.616 317 486.452 317.094 486.312 317.234C486.218 317.328 486.218 317.539 486.312 317.867C484.765 317.961 483.289 318.289 481.882 318.852C480.476 319.414 479.094 320.023 477.735 320.68C477.032 320.445 476.422 320.164 475.906 319.836C475.391 319.508 474.734 319.297 473.937 319.203C473.14 317.609 472.389 315.945 471.685 314.211C471.028 312.43 470.7 310.648 470.699 308.867C470.698 307.555 470.932 306.359 471.401 305.281C471.4 303.875 471.517 302.492 471.751 301.133C471.985 299.773 472.242 298.437 472.523 297.125C472.85 295.766 473.131 294.406 473.365 293.047C473.599 291.687 473.715 290.305 473.715 288.898L473.714 287.352C473.62 287.352 473.503 287.469 473.363 287.703C473.222 287.891 473.082 288.125 472.941 288.406C472.848 288.641 472.754 288.875 472.66 289.109C472.567 289.344 472.496 289.484 472.449 289.531C471.653 290.141 471.02 290.914 470.552 291.852C470.13 292.742 469.662 293.586 469.147 294.383C468.491 295.367 467.788 296.328 467.038 297.266C466.336 298.203 465.445 298.93 464.367 299.445L464.367 299.586C464.367 299.82 464.297 299.984 464.157 300.078C464.016 300.172 463.993 300.406 464.087 300.781C462.915 301.156 461.813 301.695 460.782 302.398C459.798 303.102 458.978 303.992 458.323 305.07C457.385 305.305 456.495 305.633 455.651 306.055C454.854 306.43 454.034 306.852 453.191 307.32C452.816 307.508 452.417 307.742 451.996 308.023C451.574 308.305 451.152 308.492 450.73 308.586C450.355 308.727 449.84 308.82 449.183 308.867C448.574 308.914 447.918 308.961 447.215 309.008C446.558 309.055 445.902 309.078 445.246 309.078H443.699C443.465 309.078 443.16 308.961 442.785 308.727C442.41 308.492 441.988 308.234 441.519 307.953C441.097 307.672 440.652 307.414 440.183 307.18C439.714 306.898 439.268 306.711 438.847 306.617C438.471 305.398 437.932 304.32 437.228 303.383C436.572 302.398 435.868 301.414 435.118 300.43C434.883 299.305 434.554 298.133 434.132 296.914C433.756 295.695 433.076 294.687 432.092 293.891C432.326 293.562 432.443 293.187 432.443 292.766C432.443 292.25 432.325 291.758 432.091 291.289C431.856 290.82 431.739 290.305 431.739 289.742C431.738 289.367 431.762 289.086 431.809 288.898C431.293 289.461 430.918 290.187 430.684 291.078C430.497 291.922 430.404 292.695 430.404 293.398C430.404 293.961 430.475 294.477 430.616 294.945C430.147 295.602 429.843 296.422 429.702 297.406C429.609 298.391 429.563 299.258 429.563 300.008C429.563 300.945 429.634 301.859 429.775 302.75C429.025 303.5 428.65 304.414 428.651 305.492C428.651 306.102 428.792 306.641 429.073 307.109C429.073 307.297 429.027 307.437 428.933 307.531C428.839 307.625 428.722 307.695 428.581 307.742C428.488 307.789 428.37 307.859 428.23 307.953C428.136 308 428.089 308.117 428.089 308.305C428.089 308.539 428.09 308.797 428.09 309.078C428.137 309.359 428.16 309.641 428.16 309.922C428.161 310.578 428.137 311.258 428.091 311.961C428.044 312.664 428.021 313.344 428.021 314C428.022 315.359 428.139 316.344 428.374 316.953C428.655 317.516 428.984 317.937 429.359 318.219C429.781 318.5 430.226 318.781 430.695 319.062C431.164 319.344 431.633 319.883 432.102 320.68C431.961 321.102 431.704 321.453 431.329 321.734C431.001 321.969 430.673 322.227 430.345 322.508C430.064 322.742 429.806 323.023 429.572 323.352C429.337 323.68 429.244 324.148 429.291 324.758H428.939C428.33 324.758 427.744 324.852 427.182 325.039C426.619 325.227 426.033 325.32 425.424 325.32C425.283 325.32 425.143 325.297 425.002 325.25C424.861 325.25 424.721 325.25 424.58 325.25L423.877 324.828C423.643 324.687 423.408 324.617 423.174 324.617C422.939 324.617 422.635 324.664 422.26 324.758C421.603 322.648 421.086 320.469 420.71 318.219C420.381 315.969 420.216 313.766 420.216 311.609C420.216 311.375 420.262 311.141 420.356 310.906C420.497 310.625 420.684 310.531 420.918 310.625L420.918 309.289C420.917 307.836 421.034 306.43 421.268 305.07C421.549 303.664 421.689 302.211 421.688 300.711C421.688 300.289 421.664 299.867 421.617 299.445C421.617 299.023 421.594 298.625 421.547 298.25C421.781 297.453 422.015 296.656 422.249 295.859C422.53 295.016 422.67 294.148 422.67 293.258C422.669 292.883 422.599 292.437 422.458 291.922C422.833 291.641 423.114 291.289 423.302 290.867C423.489 290.398 423.629 289.906 423.723 289.391C423.816 288.828 423.886 288.289 423.933 287.773C423.98 287.258 424.027 286.789 424.073 286.367C424.542 285.43 424.799 284.422 424.846 283.344C424.892 282.266 425.126 281.258 425.548 280.32C425.501 280.133 425.477 279.805 425.477 279.336C425.476 278.398 425.617 277.461 425.898 276.523C426.225 275.539 426.858 274.789 427.795 274.273C428.639 274.602 429.624 274.766 430.749 274.766C431.827 274.766 432.858 274.602 433.842 274.273C434.123 274.367 434.381 274.484 434.616 274.625C434.85 274.719 435.084 274.836 435.319 274.977C435.6 275.07 435.881 275.164 436.163 275.258C436.444 275.305 436.772 275.305 437.147 275.258C437.616 276.617 438.015 278 438.344 279.406C438.72 280.812 439.001 282.242 439.189 283.695C439.283 284.305 439.307 284.961 439.26 285.664C439.261 286.367 439.308 287.023 439.402 287.633C439.449 288.008 439.566 288.359 439.754 288.687C439.941 288.969 440.129 289.297 440.317 289.672C440.504 290.047 440.645 290.469 440.739 290.937C440.88 291.406 440.927 291.992 440.88 292.695C441.396 293.914 441.959 295.086 442.569 296.211C443.226 297.289 443.929 298.367 444.68 299.445C445.102 299.586 445.477 299.773 445.805 300.008C446.133 300.195 446.344 300.523 446.438 300.992C446.86 300.992 447.235 301.062 447.563 301.203L448.759 301.555C450.54 300.992 452.18 300.242 453.68 299.305C455.226 298.367 456.843 297.57 458.53 296.914C460.592 294.898 462.373 292.672 463.872 290.234C465.371 287.75 466.87 285.289 468.369 282.852L468.368 281.305C468.649 281.164 468.884 281 469.071 280.812C469.305 280.578 469.587 280.414 469.915 280.32C469.961 279.758 470.078 279.219 470.266 278.703C470.5 278.141 470.734 277.625 470.968 277.156C471.249 276.641 471.483 276.148 471.671 275.68C471.858 275.164 471.952 274.625 471.951 274.062C471.951 273.734 471.928 273.453 471.881 273.219C472.584 272.516 473.427 272.164 474.412 272.164C475.349 272.164 476.287 272.398 477.224 272.867C478.209 273.289 479.123 273.687 479.967 274.062C480.483 275.187 480.859 276.383 481.093 277.648C481.375 278.867 481.563 280.133 481.657 281.445C481.752 282.758 481.799 284.07 481.799 285.383L481.801 290.375C481.755 290.75 481.614 291.031 481.38 291.219C481.192 291.359 481.052 291.594 480.958 291.922L480.958 292.625C480.959 292.859 480.935 293.094 480.888 293.328C480.889 294.312 480.772 295.344 480.538 296.422C480.304 297.781 480 299.164 479.626 300.57C479.298 301.93 479.134 303.312 479.135 304.719C479.135 305.234 479.159 305.75 479.206 306.266C479.253 306.781 479.347 307.297 479.488 307.812C479.253 308.234 479.136 308.773 479.137 309.43C479.137 310.18 479.254 310.883 479.489 311.539C479.771 312.148 480.099 312.758 480.474 313.367C481.13 313.367 481.787 313.344 482.443 313.297C483.099 313.25 483.779 313.227 484.482 313.227C485.138 313.227 485.748 313.297 486.31 313.437C486.873 313.531 487.459 313.766 488.068 314.141ZM534.883 278.281L534.883 278.562C534.555 278.656 534.391 278.891 534.391 279.266C533.875 279.5 533.336 279.687 532.774 279.828C532.211 279.922 531.672 280.086 531.157 280.32C530.641 280.273 530.102 280.25 529.54 280.25C529.024 280.203 528.508 280.18 527.993 280.18C526.587 280.18 525.18 280.227 523.774 280.32C522.368 280.414 520.962 280.414 519.555 280.32C518.899 280.695 518.173 281 517.376 281.234C516.626 281.422 515.9 281.516 515.196 281.516C514.634 281.516 514.142 281.445 513.72 281.305C512.595 281.867 511.353 282.336 509.994 282.711C508.681 283.086 507.346 283.461 505.986 283.836C504.627 284.164 503.315 284.562 502.049 285.031C500.831 285.453 499.753 286.062 498.816 286.859C498.722 287.516 498.652 288.172 498.605 288.828C498.559 289.437 498.536 290.047 498.536 290.656C498.536 291.312 498.56 291.922 498.607 292.484C498.701 293.047 498.865 293.609 499.1 294.172C499.334 294.266 499.592 294.336 499.873 294.383C500.201 294.43 500.483 294.453 500.717 294.453C500.951 294.453 501.186 294.43 501.42 294.383C501.654 294.289 501.818 294.125 501.912 293.891C502.615 293.797 503.318 293.773 504.021 293.82C504.725 293.82 505.428 293.82 506.131 293.82C506.834 293.82 507.514 293.797 508.17 293.75C508.873 293.703 509.553 293.586 510.209 293.398C510.959 293.211 511.685 293.094 512.388 293.047C513.138 293 513.865 292.953 514.568 292.906C515.271 292.859 515.998 292.789 516.748 292.695C517.497 292.555 518.271 292.297 519.068 291.922C519.677 292.156 520.286 292.273 520.896 292.273C521.552 292.273 522.185 292.32 522.794 292.414C523.123 292.648 523.38 292.906 523.568 293.187C523.803 293.469 523.92 293.797 523.92 294.172C523.92 294.828 523.686 295.484 523.218 296.141C522.749 296.797 522.374 297.406 522.093 297.969H521.32C520.195 297.969 519.093 298.133 518.015 298.461C516.984 298.742 515.93 299.094 514.852 299.516C513.821 299.891 512.766 300.242 511.688 300.57C510.657 300.852 509.579 300.992 508.454 300.992C508.266 300.992 508.149 301.109 508.102 301.344C508.102 301.531 508.056 301.672 507.962 301.766C507.728 301.719 507.376 301.695 506.907 301.695C505.829 301.695 504.798 301.812 503.814 302.047C502.829 302.281 501.822 302.398 500.79 302.398C500.509 302.398 500.228 302.398 499.947 302.398C499.665 302.352 499.384 302.305 499.103 302.258C498.868 302.633 498.564 302.891 498.189 303.031C497.814 303.125 497.462 303.312 497.134 303.594C496.994 304.016 496.9 304.531 496.854 305.141C496.854 305.75 496.831 306.383 496.784 307.039C496.784 307.648 496.738 308.234 496.644 308.797C496.551 309.359 496.363 309.805 496.082 310.133C496.129 310.367 496.317 310.461 496.645 310.414C496.973 310.32 497.137 310.461 497.137 310.836C497.137 311.258 497.091 311.703 496.997 312.172C496.904 312.641 496.857 313.109 496.857 313.578C496.857 314.469 496.951 315.453 497.139 316.531C497.374 317.562 497.703 318.523 498.125 319.414C498.594 320.305 499.204 321.055 499.954 321.664C500.704 322.227 501.642 322.508 502.767 322.508C503.517 322.508 504.22 322.367 504.876 322.086C505.532 321.805 506.071 321.336 506.493 320.68L506.844 320.609C507.032 320.609 507.196 320.633 507.336 320.68C507.524 320.727 507.711 320.75 507.899 320.75C508.18 320.75 508.532 320.586 508.953 320.258C509.422 319.883 509.914 319.461 510.429 318.992C510.992 318.523 511.554 318.078 512.116 317.656C512.679 317.187 513.218 316.859 513.733 316.672C514.061 316.016 514.366 315.359 514.647 314.703C514.974 314.047 515.443 313.531 516.052 313.156L516.051 311.117C516.52 310.602 517.012 310.133 517.527 309.711C518.09 309.289 518.511 308.75 518.792 308.094C519.027 308.187 519.238 308.258 519.425 308.305C519.66 308.352 519.894 308.375 520.128 308.375C520.363 308.375 520.597 308.352 520.832 308.305C521.113 308.258 521.371 308.187 521.605 308.094C521.98 308.609 522.262 309.195 522.449 309.852C522.684 310.461 522.965 311.047 523.294 311.609C522.872 312.453 522.38 313.461 521.818 314.633C521.256 315.805 520.647 316.977 519.992 318.148C519.336 319.32 518.633 320.445 517.883 321.523C517.181 322.555 516.478 323.352 515.775 323.914C515.634 324.055 515.33 324.219 514.861 324.406C514.346 324.781 513.877 325.133 513.455 325.461C513.034 325.836 512.635 326.258 512.26 326.727C510.901 327.148 509.589 327.711 508.324 328.414C507.105 329.117 505.887 329.797 504.668 330.453C504.106 330.312 503.496 330.242 502.84 330.242C502.277 330.242 501.715 330.266 501.152 330.312C500.59 330.406 499.981 330.453 499.324 330.453C499.137 330.219 498.855 330.055 498.48 329.961C498.152 329.914 498.035 329.68 498.129 329.258C496.535 329.164 495.246 328.719 494.261 327.922C493.276 327.172 492.432 326.234 491.729 325.109C491.072 323.984 490.532 322.766 490.11 321.453C489.688 320.141 489.242 318.875 488.773 317.656L488.773 317.445C488.772 317.211 488.866 317.07 489.054 317.023C489.241 316.977 489.335 316.836 489.335 316.602C489.335 316.508 489.311 316.437 489.264 316.391C489.124 315.875 489.006 315.43 488.912 315.055C488.818 314.68 488.771 314.234 488.771 313.719C488.771 312.969 488.817 312.242 488.911 311.539C489.004 310.789 489.051 310.039 489.051 309.289C489.05 308.539 488.956 307.883 488.769 307.32C488.956 307.086 489.12 306.781 489.261 306.406C489.354 305.984 489.424 305.562 489.471 305.141C489.518 304.719 489.541 304.297 489.541 303.875C489.588 303.453 489.658 303.078 489.751 302.75C489.564 302.234 489.399 301.789 489.259 301.414C489.118 300.992 489.047 300.5 489.047 299.937L489.047 299.445C489.515 298.648 489.914 297.828 490.241 296.984C490.569 296.141 490.92 295.273 491.295 294.383L491.295 294.172C491.294 292.812 491.247 291.453 491.153 290.094C491.059 288.734 491.011 287.375 491.011 286.016L491.01 284.68C491.01 284.211 491.033 283.766 491.08 283.344C491.455 283.156 491.736 282.898 491.923 282.57C492.111 282.242 492.392 281.984 492.767 281.797H495.087L495.509 281.094C495.649 280.859 495.743 280.602 495.79 280.32C496.305 280.18 496.797 279.992 497.266 279.758C497.782 279.477 498.25 279.195 498.672 278.914C499.328 278.539 499.914 278.211 500.429 277.93C500.992 277.602 501.531 277.344 502.046 277.156C502.609 276.922 503.195 276.734 503.804 276.594C504.413 276.453 505.116 276.336 505.913 276.242C506.288 276.242 506.522 276.172 506.616 276.031C506.757 275.891 506.944 275.727 507.178 275.539C507.741 275.633 508.304 275.727 508.866 275.82C509.429 275.867 509.991 275.891 510.554 275.891C511.679 275.891 512.733 275.68 513.717 275.258C515.124 275.258 516.507 275.234 517.866 275.187C519.272 275.141 520.678 275.117 522.085 275.117C523.303 275.117 524.522 275.164 525.741 275.258C526.96 275.352 528.155 275.516 529.327 275.75C529.749 275.609 530.218 275.539 530.733 275.539C531.296 275.539 531.858 275.609 532.421 275.75C533.03 275.844 533.616 275.844 534.179 275.75C534.226 276.266 534.343 276.711 534.531 277.086C534.765 277.414 534.882 277.812 534.883 278.281Z" fill="black"/>
</svg>
